<?xml version="1.0" encoding="utf-8"?>
<!-- Generator: Adobe Illustrator 24.0.2, SVG Export Plug-In . SVG Version: 6.00 Build 0)  -->
<svg version="1.1" id="exportSVG" xmlns="http://www.w3.org/2000/svg" xmlns:xlink="http://www.w3.org/1999/xlink" x="0px" y="0px"
	 viewBox="0 0 275.3 119" style="enable-background:new 0 0 275.3 119;" xml:space="preserve">
<style type="text/css">
	.st0{enable-background:new    ;}
	.st1{fill:#FFFFFF;}
</style>
<g id="settings">
</g>
<g id="objectsExport_1_">
	<g>
		<g id="group2_9_">
			<g class="st0">
				<path class="st1" d="M39.8,41.5c0,0.9,0,2-0.1,2.9c0.5,1.3,1.4,3.7,2.4,6.2c0,0.3,0.1,0.4,0.1,0.7c0,0.9-0.8,1.7-1.6,1.7
					c-0.4,0-0.8-0.3-0.9-0.9c-0.1-0.9-0.4-2.5-0.7-3.3c-0.5,2.8-1.6,5.8-2.9,7.9c-0.3,0.5-0.7,0.7-1,0.7c-0.7,0-1.4-0.7-1.4-1.4
					c0-0.3,0-0.4,0.1-0.7c2.2-3.1,3.4-7.9,3.4-13.6V31.1c0-0.8,0.7-1.2,1.3-1.2s1.3,0.4,1.3,1.2v5.1c0.4-0.5,0.7-1.2,0.9-1.6
					s0.5-0.7,0.9-0.7c0.5,0,1.2,0.5,1.2,1.2c0,0.9-2,3.4-3.1,4.6v1.7C39.7,41.5,39.8,41.5,39.8,41.5z M35.1,42.7
					c-0.7,0-1.4-0.5-1.4-1.3c0-0.1,0-0.3,0-0.3c0.5-2.1,0.5-4.2,0.7-5.5c0-0.8,0.5-1,1-1c0.7,0,1.2,0.4,1.2,1.2
					c0,1.2-0.1,3.7-0.5,5.9C36,42.3,35.6,42.7,35.1,42.7z M56.5,38.9c0.5,2.9,1.6,5.9,3.8,8.3c0.3,0.3,0.4,0.5,0.4,0.8
					c0,0.8-0.7,1.7-1.4,1.7c-1.4,0-3.7-5.1-4.1-7.6c-1.6,4.9-4.7,7.5-5.8,7.5c-0.8,0-1.4-0.7-1.4-1.4c0-0.4,0.1-0.8,0.5-0.9
					c3-2.1,4.3-4.3,4.9-8.3h-2.5c-0.9,4.2-2.9,7.5-7,10.2c0.8,0,1.6,0.7,1.6,1.6c0,0.1,0,0.3,0,0.3c-0.5,2.1-0.9,3.7-1.7,5.4
					c-0.3,0.5-0.7,0.8-1.2,0.8c-0.8,0-1.7-0.7-1.7-1.6c0-0.3,0-0.4,0.1-0.7l0.7-1.2c0.5-1.2,0.9-2.4,1.2-3.7c0-0.4,0.3-0.5,0.4-0.7
					c-0.8,0-1.4-0.7-1.4-1.3c0-0.4,0.1-0.7,0.7-0.9c1.2-0.8,2.2-1.7,3-2.8c-0.7-0.8-1.6-1.8-2.4-2.4c-0.3,0.5-0.8,0.7-1.2,0.7
					c-0.7,0-1.3-0.7-1.3-1.4c0-0.4,0.1-0.7,0.4-0.9c2.2-2.6,2.8-6.3,3.1-9.2c0.1-0.7,0.7-0.9,1.2-0.9c0.7,0,1.4,0.5,1.4,1.3
					c0,0.1,0,0.1,0,0.3v0.1h2.9c1.4,0,2,0.7,2,1.8c0,0.1,0,0.3,0,0.4c0,0.8-0.1,1.6-0.3,2.4h2.2c0.1-1.4,0.1-3.1,0.1-5
					c0-0.8,0.7-1.3,1.3-1.3c0.7,0,1.3,0.4,1.3,1.3c0,1.8,0,3.4-0.1,5h3.3c0.8,0,1.2,0.7,1.2,1.3c0,0.7-0.4,1.3-1.2,1.3h-3
					C56.5,39.1,56.5,38.9,56.5,38.9z M45.3,37.7c-0.3,0.7-0.5,1.4-0.9,2.1c0.9,0.8,1.7,1.4,2.5,2.4c0.4-0.8,0.7-1.6,0.9-2.4
					C47,39,46.2,38.3,45.3,37.7z M48.8,34.4c0-0.1-0.1-0.3-0.3-0.3h-2.2c0,0.4-0.1,0.8-0.3,1.2c0.9,0.7,1.7,1.2,2.5,1.7
					C48.6,36.2,48.7,35.3,48.8,34.4L48.8,34.4z M50.3,55.6c0,0.9-0.8,1.4-1.6,1.4c-0.7,0-1.3-0.4-1.3-1.2c-0.1-2-0.4-3.4-0.8-4.6
					c0-0.1,0-0.3,0-0.3c0-0.7,0.7-1.2,1.4-1.2c0.5,0,1,0.3,1.2,0.9C49.6,52.2,50,53.7,50.3,55.6L50.3,55.6z M51.2,50.7
					c0-0.7,0.7-1.2,1.4-1.2c0.5,0,1,0.3,1.3,0.9c0.3,0.5,1.4,4.3,1.4,5.1c0,0.9-0.8,1.4-1.6,1.4c-0.5,0-1.2-0.4-1.3-1
					c-0.3-1.8-0.8-3.4-1.2-4.7C51.2,50.9,51.2,50.8,51.2,50.7z M59.1,57.1c-0.5,0-1-0.3-1.2-0.9c-0.5-2-1-3.8-1.8-5.2
					c-0.1-0.1-0.1-0.4-0.1-0.5c0-0.7,0.7-1.3,1.4-1.3c0.4,0,0.8,0.3,1,0.7c0.8,1.6,1.6,3.4,2.2,5.2c0,0.3,0.1,0.4,0.1,0.5
					C60.7,56.4,59.9,57.1,59.1,57.1z M58.7,36c-0.4,0-0.8-0.3-0.9-0.7c-0.3-0.8-0.5-1.7-0.9-2.2c-0.1-0.3-0.3-0.4-0.3-0.7
					c0-0.5,0.7-0.9,1.3-0.9c0.4,0,0.8,0.1,0.9,0.5c0.5,0.8,0.8,1.4,1.2,2.4c0,0.3,0.1,0.4,0.1,0.5C59.9,35.4,59.2,36,58.7,36z"/>
				<path class="st1" d="M68.5,39c-0.4-1.3-1.3-4.9-1.3-5.4c0-0.9,0.8-1.4,1.6-1.4c0.7,0,1.3,0.4,1.4,1.2c0.3,1.4,0.7,3,1.2,4.7
					c0.8-0.3,8.1-2.6,11.8-2.6c4.2,0,7.6,2.4,7.6,6.7c0,4.7-4.6,7.3-9.3,7.3c-1.4,0-2.9-0.3-4.3-0.8c-0.8-0.3-1.2-0.9-1.2-1.6
					c0-0.8,0.5-1.4,1.4-1.4c0.1,0,0.4,0,0.5,0.1c1.3,0.4,2.6,0.7,3.7,0.7c3.8,0,6-2.2,6-4.6c0-1.8-1.3-3.8-4.6-3.8
					c-1.6,0-5.1,0.7-10.9,2.6c1.3,4.1,3,8.7,5.2,13.4c0.1,0.3,0.1,0.5,0.1,0.7c0,0.9-0.9,1.6-1.7,1.6c-0.5,0-1-0.3-1.4-0.9
					c-2-4.7-3.7-9.4-5.1-13.6c-1,0.4-2.2,0.8-3.1,1.2c-0.3,0.1-0.5,0.1-0.7,0.1c-0.9,0-1.6-0.8-1.6-1.6c0-0.5,0.3-1,0.9-1.3L68.5,39
					z M82,33.5c-0.5,0-1,0-1.6,0c-2,0-4.1,0.3-5.5,0.5c0,0-0.1,0-0.3,0c-0.8,0-1.2-0.7-1.2-1.3c0-0.7,0.4-1.2,1.2-1.3
					c1.7-0.4,4.3-0.5,6.4-0.5c1.3,0,2.8,0,2.8,1.4c0,0.7-0.5,1.4-1.6,1.4H82C82,33.7,82,33.5,82,33.5z"/>
				<path class="st1" d="M116.3,32.2c0,1.6,0,3.3-0.1,5.1c2.5-0.1,3.9-0.1,4.1-0.1c0.9,0,1.4,0.7,1.4,1.4c0,0.8-0.5,1.6-1.4,1.6
					c-1.3,0-2.8,0-4.1,0c-0.1,5.5-0.3,8.7-4.9,8.7c-1,0-2.1-0.1-3.4-0.5c-0.9-0.1-1.2-0.8-1.2-1.4c0-0.8,0.5-1.4,1.3-1.4
					c0.1,0,0.3,0,0.3,0c1.2,0.3,2.1,0.5,2.8,0.5c1.6,0,2-0.5,2.2-5.6c-3.8,0.1-7.3,0.3-10.6,0.5c0,0.9,0,1.8,0,2.8
					c0,1.8,0,3.4,0.1,4.9c0.1,3.5,1.6,4.5,6.7,4.5c2.2,0,4.5-0.3,6.7-0.7c0.1,0,0.3,0,0.4,0c0.9,0,1.6,0.8,1.6,1.6
					c0,0.7-0.5,1.4-1.6,1.6c-2.4,0.3-3.9,0.5-7,0.5c-7.2,0-9.4-2.2-9.6-7.2c0-1.3-0.1-2.9-0.1-4.6c0-0.9,0-2,0-3
					c-1.4,0.1-2.9,0.3-4.2,0.3h-0.1c-0.9,0-1.4-0.8-1.4-1.4c0-0.7,0.4-1.4,1.4-1.4l4.5-0.3c0-2,0-3.8,0-5.2l0,0
					c0-0.9,0.8-1.3,1.4-1.3c0.7,0,1.4,0.5,1.4,1.4c0,1.6,0,3.3,0,5.1c3.9-0.3,7.3-0.4,10.6-0.5c0-1.7,0-3.5,0-5.2
					c0-0.8,0.8-1.2,1.4-1.2C115.5,30.9,116.3,31.2,116.3,32.2L116.3,32.2z"/>
				<path class="st1" d="M127,34.3c0.8,0.1,1.7,0.1,2.5,0.1c0.9,0,1.8,0,2.8-0.1c0.3-1,0.4-2,0.5-3c0.1-0.8,0.8-1.2,1.4-1.2
					c0.8,0,1.7,0.5,1.7,1.3c0,0.1,0,0.1,0,0.3c-0.1,0.7-0.3,1.3-0.4,2c0.7-0.1,1.3-0.3,2-0.5c0.1,0,0.3,0,0.5,0
					c0.8,0,1.3,0.7,1.3,1.4c0,0.9-0.4,1.6-4.6,2.2c-1.4,4.6-3.8,9.2-6,13.3c-0.4,0.8-1,1-1.7,1c-0.8,0-1.6-0.5-1.6-1.4
					c0-0.3,0.1-0.7,0.4-1c2.2-3.3,4.3-7.5,5.6-11.5c-0.7,0-1.3,0.1-2,0.1c-2.4,0-3.9,0-3.9-1.6C125.6,34.8,126.1,34.1,127,34.3
					L127,34.3L127,34.3z M138.6,56.3c-3.3,0-6.7-2-6.7-5c0-2.4,2.2-5,7.2-5c1,0,2.1,0.1,3.1,0.4c-0.1-5.2-0.1-5.2-0.1-5.4
					c0-0.9,0.8-1.3,1.6-1.3s1.6,0.5,1.6,1.4c0,2,0,4.2,0,6.3c2,0.9,3.8,2.2,5.2,3.7c0.4,0.4,0.5,0.8,0.5,1.2c0,0.9-0.7,1.6-1.4,1.6
					c-0.4,0-0.8-0.1-1.2-0.7c-0.8-0.9-1.8-1.8-3-2.5C144.9,54.3,141.9,56.3,138.6,56.3z M142.3,49.5c-1-0.4-2.2-0.7-3.3-0.7
					c-2.4,0-4.2,1-4.2,2.4c0,1.6,2.2,2.2,3.7,2.2C140.6,53.4,142.3,52.1,142.3,49.5L142.3,49.5z M149.2,38.6c-1.4-0.7-3-0.9-4.7-0.9
					c-0.9,0-2,0.1-3,0.3c-0.1,0-0.1,0-0.3,0c-0.8,0-1.3-0.7-1.3-1.4c0-1.2,0.7-1.7,4.7-1.7c2.1,0,4.3,0.3,5.8,0.9
					c0.7,0.3,0.9,0.9,0.9,1.4c0,0.8-0.5,1.4-1.4,1.4C149.9,38.9,149.6,38.7,149.2,38.6z"/>
				<path class="st1" d="M163.4,55.9c-2.8,0-7.2-2.8-7.2-15.4c0-2.4,0.1-4.5,0.4-6.2c0.1-1,0.9-1.6,1.6-1.6c0.8,0,1.6,0.5,1.6,1.4
					c0,0.1,0,0.3,0,0.3c-0.3,1.8-0.5,4.1-0.5,6.4c0,8.4,2.4,11.5,3.9,11.5c0.7,0,1.8-0.5,3.1-5.1c0.3-0.8,0.8-1.2,1.4-1.2
					c0.8,0,1.7,0.7,1.7,1.7s-1.2,4.2-2.4,5.9C166.1,55.3,164.8,55.9,163.4,55.9z M178.1,50.1c0-6-1.6-10.4-4.9-14.4
					c-0.3-0.3-0.3-0.5-0.3-0.8c0-0.8,0.7-1.4,1.6-1.4c0.4,0,0.9,0.1,1.2,0.7c3.7,4.2,5.8,9.7,5.8,16.1c0,1.2-0.9,1.8-1.7,1.8
					c-0.8,0-1.6-0.5-1.6-1.7L178.1,50.1L178.1,50.1z"/>
				<path class="st1" d="M198.9,55.8c-9.8,0-12.6-3.9-12.6-7c0-2,1.4-4.7,3-4.7c0.8,0,1.6,0.7,1.6,1.4c0,0.3-0.1,0.7-0.5,0.9
					c-0.8,0.8-1.2,1.4-1.2,2.2c0,1.7,2.2,3.9,9.1,3.9c3.3,0,6.7-0.5,8.9-1.2c0.1,0,0.4-0.1,0.5-0.1c0.9,0,1.6,0.8,1.6,1.7
					c0,0.7-0.4,1.4-1.4,1.7C205.5,55.3,202.2,55.8,198.9,55.8z M205.5,36.4c-0.1,0-0.3,0-0.4,0c-2.9-0.5-5.8-0.7-8.4-0.7
					c-2.9,0-5.5,0.3-7.7,0.5c0,0-0.1,0-0.3,0c-0.8,0-1.3-0.8-1.3-1.6c0-0.7,0.4-1.4,1.4-1.6c2.4-0.3,5.2-0.5,8-0.5s5.6,0.1,8,0.5
					c-0.4-0.8-0.9-1.7-1.3-2.4c-0.1-0.1-0.1-0.4-0.1-0.5c0-0.5,0.5-1,1.2-1c0.4,0,0.8,0.1,1,0.7c1.8,3,2.4,4.1,2.4,4.7
					c0,0.7-0.7,1.2-1.2,1.2c-0.1,0-0.3,0-0.4,0C206.4,36.1,206,36.4,205.5,36.4z M208,30.6c-0.1-0.3-0.1-0.4-0.1-0.5
					c0-0.5,0.5-0.9,1.2-0.9c0.4,0,0.8,0.3,1,0.7c0.8,1.3,1.6,2.5,2.2,4.1c0,0.1,0.1,0.4,0.1,0.5c0,0.7-0.7,1.2-1.2,1.2
					c-0.4,0-0.9-0.3-1-0.8C209.4,33.1,208.7,31.8,208,30.6z"/>
				<path class="st1" d="M234.2,37.4c0-0.9,0.7-1.4,1.4-1.4c0.8,0,1.6,0.5,1.7,1.6c0,0.5,0,1,0,1.6c0,1.7-0.1,3.7-0.5,5.6
					c1.3,0.9,2.4,2,3.3,3c0.3,0.4,0.4,0.8,0.4,1.2c0,0.9-0.8,1.7-1.6,1.7c-0.4,0-0.8-0.1-1.2-0.5c-0.5-0.7-1.2-1.3-1.8-2
					c-2.9,8-9.6,8.4-9.6,8.4c-1,0-1.6-0.8-1.6-1.6c0-0.7,0.4-1.2,1.2-1.4c4.3-0.8,6.6-3.9,7.5-7.5c-2.2-1.6-4.9-2.6-7.5-3
					c-2.5,7.5-4.3,11.5-7.9,11.5c-2.4,0-4.3-2.4-4.3-5.6c0-3.9,2.9-8.7,10.2-8.7c1.6-5.2,1.6-5.4,1.6-5.5c0-0.4-0.3-0.7-0.8-0.7
					h-0.1c-1.3,0-3,0.3-4.6,0.3c-1.4,0-3,0-3-1.6c0-0.7,0.5-1.4,1.4-1.4h0.1c0.7,0,1.4,0.1,2.2,0.1c1.7,0,3.3-0.1,4.9-0.3h0.3
					c1.8,0,2.9,1,2.9,2.5c0,0.4,0,0.8-0.3,1.2c-0.5,1.7-1.2,3.7-1.8,5.6c2.5,0.4,5,1.3,7.2,2.5c0.1-1,0.1-2.1,0.1-3.1
					c0-0.9,0-1.7-0.1-2.5l0,0C234,37.4,234.2,37.4,234.2,37.4z M220.9,43.3c-3.3,0.9-4.3,3.8-4.3,5.6c0,2.1,1.4,2.5,1.7,2.5
					c1.6,0,3-2.9,4.9-8.5C222.3,43.1,221.5,43.2,220.9,43.3z"/>
			</g>
		</g>
		<g id="group4_9_">
			<g class="st0">
				<path class="st1" d="M98.6,86.2H82.8v4.9c0,0.8-0.7,1.2-1.4,1.2c-0.7,0-1.4-0.4-1.4-1.2V77.6c-1.8,1-2.2,1.2-2.6,1.2
					c-0.9,0-1.4-0.8-1.4-1.4c0-0.5,0.3-0.9,0.8-1.2c3.7-1.7,6.2-3.7,8-5.8h-7.1c-0.8,0-1.2-0.7-1.2-1.3s0.4-1.3,1.2-1.3h8.7
					c0.3-0.5,0.5-1,0.7-1.6c0.3-0.7,0.9-0.9,1.4-0.9c0.8,0,1.6,0.5,1.6,1.4c0,0.3,0,0.3-0.3,1h11.8c0.8,0,1.3,0.7,1.3,1.3
					c0,0.7-0.4,1.3-1.3,1.3H88.2c-0.5,0.9-1.3,1.7-2.1,2.6h13c1.4,0,2.5,1,2.5,2.5v12.6c0,2.9-1.6,4.2-4.9,4.2c-1,0-2.4-0.1-3.8-0.4
					c-0.8-0.1-1.2-0.8-1.2-1.6c0-0.8,0.5-1.6,1.3-1.6c0.1,0,0.1,0,0.3,0c1.3,0.3,2.4,0.4,3.1,0.4c1.3,0,2.1-0.5,2.1-2V86.2z
					 M98.6,76.1c0-0.3-0.3-0.7-0.5-0.7H83.4c-0.3,0-0.7,0.3-0.7,0.7v2.2h15.7L98.6,76.1L98.6,76.1z M98.6,81.1H82.8v2.5h15.7V81.1z"
					/>
				<path class="st1" d="M107.4,82.2c-0.8,0-1.2-0.7-1.2-1.3c0-0.7,0.4-1.3,1.2-1.3h10.8v-1.7h-9.1c-0.8,0-1.2-0.7-1.2-1.2
					c0-0.7,0.4-1.2,1.2-1.2h9.1v-1.6h-8c-0.7,0-1-0.5-1-1c-0.3,0.1-0.5,0.1-0.8,0.1c-0.7,0-1.3-0.4-1.3-1v-2.8
					c0-1.4,0.7-2.1,2.1-2.1h8.9v-0.7c0-0.8,0.8-1.2,1.6-1.2c0.8,0,1.6,0.4,1.6,1.2v0.7h9.2c1.4,0,2.2,0.7,2.2,2.1v2.8
					c0,0.7-0.7,1-1.4,1c-0.3,0-0.4,0-0.5-0.1c-0.1,0.5-0.5,0.9-1,0.9h-8.3v1.6h9.3c0.8,0,1.2,0.7,1.2,1.2c0,0.7-0.4,1.2-1.2,1.2
					h-9.3v1.7h10.9c0.8,0,1.2,0.7,1.2,1.4c0,0.7-0.4,1.3-1.2,1.3H107.4z M110,91.7c-1.2,0-1.7-0.5-1.7-1.7v-4.7
					c0-1.2,0.5-1.7,1.7-1.7h19.3c1.2,0,1.7,0.5,1.7,1.7V90c0,1.2-0.5,1.7-1.7,1.7H110z M129.7,70.1c0-0.3-0.3-0.5-0.7-0.5h-19
					c-0.3,0-0.4,0.1-0.4,0.5v1.4c0.1,0,0.3-0.1,0.5-0.1h8v-0.5c0-0.8,0.8-1.2,1.4-1.2c0.8,0,1.6,0.4,1.6,1.2v0.5h8.3
					c0.1,0,0.3,0,0.3,0V70.1z M128.2,86.6c0-0.3-0.1-0.4-0.4-0.4h-16.4c-0.3,0-0.4,0.1-0.4,0.4v2.1c0,0.3,0.1,0.4,0.4,0.4h16.4
					c0.3,0,0.4-0.1,0.4-0.4C128.2,88.7,128.2,86.6,128.2,86.6z"/>
				<path class="st1" d="M150.1,90.9c-9.8,0-12.6-3.9-12.6-7c0-2,1.4-4.7,3-4.7c0.8,0,1.6,0.7,1.6,1.4c0,0.3-0.1,0.7-0.5,0.9
					c-0.8,0.8-1.2,1.4-1.2,2.2c0,1.7,2.2,3.9,9.1,3.9c3.3,0,6.7-0.5,8.9-1.2c0.1,0,0.4-0.1,0.5-0.1c0.9,0,1.6,0.8,1.6,1.7
					c0,0.7-0.4,1.4-1.4,1.7C156.7,90.4,153.4,90.9,150.1,90.9z M156.7,71.5c-0.1,0-0.3,0-0.4,0c-2.9-0.5-5.8-0.8-8.4-0.8
					c-2.9,0-5.5,0.3-7.7,0.5c0,0-0.1,0-0.3,0c-0.8,0-1.3-0.8-1.3-1.6c0-0.7,0.4-1.4,1.4-1.6c2.4-0.3,5.2-0.5,8-0.5
					c2.8,0,5.6,0.1,8,0.5c-0.4-0.8-0.9-1.7-1.3-2.4c-0.1-0.1-0.1-0.4-0.1-0.5c0-0.5,0.5-1,1.2-1c0.4,0,0.8,0.1,1,0.7
					c1.8,3,2.4,4.1,2.4,4.7c0,0.7-0.7,1.2-1.2,1.2c-0.1,0-0.3,0-0.4,0C157.6,71.3,157.2,71.5,156.7,71.5z M159.2,65.8
					c-0.1-0.3-0.1-0.4-0.1-0.5c0-0.5,0.5-0.9,1.2-0.9c0.4,0,0.8,0.3,1,0.7c0.8,1.3,1.6,2.5,2.2,4.1c0,0.1,0.1,0.4,0.1,0.5
					c0,0.7-0.7,1.2-1.2,1.2c-0.4,0-0.9-0.3-1-0.8C160.6,68.2,159.8,66.8,159.2,65.8z"/>
				<path class="st1" d="M185.4,72.4c0-0.9,0.7-1.4,1.4-1.4c0.8,0,1.6,0.5,1.7,1.6c0,0.5,0,1,0,1.6c0,1.7-0.1,3.7-0.5,5.6
					c1.3,0.9,2.4,2,3.3,3c0.3,0.4,0.4,0.8,0.4,1.2c0,0.9-0.8,1.7-1.6,1.7c-0.4,0-0.8-0.1-1.2-0.5c-0.5-0.7-1.2-1.3-1.8-2
					c-2.9,8-9.6,8.4-9.6,8.4c-1,0-1.6-0.8-1.6-1.6c0-0.7,0.4-1.2,1.2-1.4c4.3-0.8,6.6-3.9,7.5-7.5c-2.2-1.6-4.9-2.6-7.5-3
					c-2.5,7.5-4.3,11.5-7.9,11.5c-2.4,0-4.3-2.4-4.3-5.6c0-3.9,2.9-8.7,10.2-8.7c1.6-5.2,1.6-5.4,1.6-5.5c0-0.4-0.3-0.7-0.8-0.7
					h-0.1c-1.3,0-3,0.3-4.6,0.3c-1.4,0-3,0-3-1.6c0-0.7,0.5-1.4,1.4-1.4h0.1c0.7,0,1.4,0.1,2.2,0.1c1.7,0,3.3-0.1,4.9-0.3h0.3
					c1.8,0,2.9,1,2.9,2.5c0,0.4,0,0.8-0.3,1.2c-0.5,1.7-1.2,3.7-1.8,5.6c2.5,0.4,5,1.3,7.2,2.5c0.1-1,0.1-2.1,0.1-3.1
					c0-0.9,0-1.7-0.1-2.5l0,0L185.4,72.4L185.4,72.4z M172,78.5c-3.3,0.9-4.3,3.8-4.3,5.6c0,2.1,1.4,2.5,1.7,2.5
					c1.6,0,3-2.9,4.9-8.5C173.6,78.1,172.8,78.2,172,78.5z"/>
			</g>
		</g>
	</g>
</g>
</svg>
