<?xml version="1.0" encoding="utf-8"?>
<!-- Generator: Adobe Illustrator 24.0.2, SVG Export Plug-In . SVG Version: 6.00 Build 0)  -->
<svg version="1.1" id="exportSVG" xmlns="http://www.w3.org/2000/svg" xmlns:xlink="http://www.w3.org/1999/xlink" x="0px" y="0px"
	 viewBox="0 0 275.3 119" style="enable-background:new 0 0 275.3 119;" xml:space="preserve">
<style type="text/css">
	.st0{enable-background:new    ;}
	.st1{fill:#FFFFFF;}
</style>
<g id="objectsExport">
	<g id="group0">
		<g class="st0">
			<path class="st1" d="M70.1,56.3c0,0.9,0,2-0.1,2.9c0.5,1.3,1.4,3.7,2.4,6.2c0,0.3,0.1,0.4,0.1,0.7c0,0.9-0.8,1.7-1.6,1.7
				c-0.4,0-0.8-0.3-0.9-0.9c-0.1-0.9-0.4-2.5-0.7-3.3c-0.5,2.8-1.6,5.8-2.9,7.9c-0.3,0.5-0.7,0.7-1,0.7c-0.7,0-1.4-0.7-1.4-1.4
				c0-0.3,0-0.4,0.1-0.7c2.2-3.1,3.4-7.9,3.4-13.6V46.1c0-0.8,0.7-1.2,1.3-1.2s1.3,0.4,1.3,1.2v5.1c0.4-0.5,0.7-1.2,0.9-1.6
				c0.3-0.4,0.5-0.7,0.9-0.7c0.5,0,1.2,0.5,1.2,1.2c0,0.9-2,3.4-3.1,4.6v1.6C70,56.3,70.1,56.3,70.1,56.3z M65.4,57.5
				c-0.7,0-1.4-0.5-1.4-1.3c0-0.1,0-0.3,0-0.3c0.5-2.1,0.5-4.2,0.7-5.5c0-0.8,0.5-1,1-1c0.7,0,1.2,0.4,1.2,1.2
				c0,1.2-0.1,3.7-0.5,5.9C66.3,57.3,65.9,57.5,65.4,57.5z M86.8,53.9c0.5,2.9,1.6,5.9,3.8,8.3c0.3,0.3,0.4,0.5,0.4,0.8
				c0,0.8-0.7,1.7-1.4,1.7c-1.4,0-3.7-5-4.1-7.6c-1.6,4.9-4.7,7.5-5.8,7.5c-0.8,0-1.4-0.7-1.4-1.4c0-0.4,0.1-0.7,0.5-0.9
				c3-2.1,4.3-4.3,4.9-8.3h-2.5c-0.9,4.2-2.9,7.5-7,10.2c0.8,0,1.6,0.7,1.6,1.6c0,0.1,0,0.3,0,0.3c-0.5,2.1-0.9,3.7-1.7,5.4
				c-0.3,0.5-0.7,0.8-1.2,0.8c-0.8,0-1.7-0.7-1.7-1.6c0-0.3,0-0.4,0.1-0.7l0.7-1.2c0.5-1.2,0.9-2.4,1.2-3.7c0-0.4,0.3-0.5,0.4-0.7
				c-0.8,0-1.4-0.7-1.4-1.3c0-0.4,0.1-0.7,0.7-0.9c1.2-0.8,2.2-1.7,3-2.8c-0.7-0.8-1.6-1.8-2.4-2.4c-0.3,0.5-0.8,0.7-1.2,0.7
				c-0.7,0-1.3-0.7-1.3-1.4c0-0.4,0.1-0.7,0.4-0.9c2.2-2.6,2.8-6.3,3.1-9.2c0.1-0.7,0.7-0.9,1.2-0.9c0.7,0,1.4,0.5,1.4,1.3
				c0,0.1,0,0.1,0,0.3v0.1h2.9c1.4,0,2,0.7,2,1.8c0,0.1,0,0.3,0,0.4c0,0.8-0.1,1.6-0.3,2.4h2.2c0.1-1.4,0.1-3.1,0.1-5
				c0-0.8,0.7-1.3,1.3-1.3s1.3,0.4,1.3,1.3c0,1.8,0,3.4-0.1,5h3.3c0.8,0,1.2,0.7,1.2,1.3c0,0.7-0.4,1.3-1.2,1.3h-3V53.9z M75.6,52.7
				c-0.3,0.7-0.5,1.4-0.9,2.1c0.9,0.8,1.7,1.4,2.5,2.4c0.4-0.8,0.7-1.6,0.9-2.4C77.3,53.9,76.5,53.2,75.6,52.7z M79.2,49.3
				c0-0.1-0.1-0.3-0.3-0.3h-2.2c0,0.4-0.1,0.8-0.3,1.2c0.9,0.7,1.7,1.2,2.5,1.7C78.9,51.1,79,50.2,79.2,49.3L79.2,49.3z M80.6,70.5
				c0,0.9-0.8,1.4-1.6,1.4c-0.7,0-1.3-0.4-1.3-1.2c-0.1-2-0.4-3.4-0.8-4.6c0-0.1,0-0.3,0-0.3c0-0.8,0.7-1.2,1.4-1.2
				c0.5,0,1,0.3,1.2,0.9C79.9,67.1,80.3,68.5,80.6,70.5L80.6,70.5z M81.5,65.5c0-0.7,0.7-1.2,1.4-1.2c0.5,0,1,0.3,1.3,0.9
				c0.3,0.5,1.4,4.3,1.4,5.1c0,0.9-0.8,1.4-1.6,1.4c-0.5,0-1.2-0.4-1.3-1c-0.3-1.8-0.8-3.4-1.2-4.7C81.5,65.8,81.5,65.7,81.5,65.5z
				 M89.4,72c-0.5,0-1-0.3-1.2-0.9c-0.5-2-1-3.8-1.8-5.2c-0.1-0.1-0.1-0.4-0.1-0.5c0-0.7,0.7-1.3,1.4-1.3c0.4,0,0.8,0.3,1,0.7
				c0.8,1.6,1.6,3.4,2.2,5.2c0,0.3,0.1,0.4,0.1,0.5C91,71.3,90.2,72,89.4,72z M89,50.8c-0.4,0-0.8-0.3-0.9-0.7
				c-0.3-0.8-0.5-1.7-0.9-2.2c-0.1-0.3-0.3-0.4-0.3-0.7c0-0.5,0.7-0.9,1.3-0.9c0.4,0,0.8,0.1,0.9,0.5c0.5,0.8,0.8,1.4,1.2,2.4
				c0,0.3,0.1,0.4,0.1,0.5C90.2,50.4,89.5,50.8,89,50.8z"/>
			<path class="st1" d="M98.8,54c-0.4-1.3-1.3-4.9-1.3-5.4c0-0.9,0.8-1.4,1.6-1.4c0.7,0,1.3,0.4,1.4,1.2c0.3,1.4,0.7,3,1.2,4.7
				c0.8-0.3,8.1-2.6,11.8-2.6c4.2,0,7.6,2.4,7.6,6.7c0,4.7-4.6,7.3-9.3,7.3c-1.4,0-2.9-0.3-4.3-0.7c-0.7-0.4-1-1-1-1.7
				c0-0.7,0.5-1.4,1.4-1.4c0.1,0,0.4,0,0.5,0.1c1.3,0.4,2.6,0.7,3.7,0.7c3.8,0,6-2.2,6-4.6c0-1.8-1.3-3.8-4.6-3.8
				c-1.6,0-5.1,0.7-10.9,2.6c1.3,4.1,3,8.7,5.2,13.4c0.1,0.3,0.1,0.5,0.1,0.7c0,0.9-0.9,1.6-1.7,1.6c-0.5,0-1-0.3-1.4-0.9
				c-2-4.7-3.7-9.4-5.1-13.6c-1,0.4-2.2,0.8-3.1,1.2c-0.3,0.1-0.5,0.1-0.7,0.1c-0.9,0-1.6-0.8-1.6-1.6c0-0.5,0.3-1,0.9-1.3L98.8,54z
				 M112.3,48.3c-0.5,0-1,0-1.6,0c-2,0-4.1,0.3-5.5,0.5c0,0-0.1,0-0.3,0c-0.8,0-1.2-0.7-1.2-1.3c0-0.7,0.4-1.2,1.2-1.3
				c1.7-0.4,4.3-0.5,6.4-0.5c1.3,0,2.8,0,2.8,1.4c0,0.7-0.5,1.4-1.6,1.4h-0.3L112.3,48.3L112.3,48.3z"/>
			<path class="st1" d="M150.3,51.8c-2,0-4.1-0.1-6-0.1c0,1.6,0,3.3,0,4.9c1,1.7,1.4,3,1.4,4.9c0,4.5-3.4,10.1-15.1,10.1
				c-0.5,0-1,0-1.7,0c-1.2,0-1.7-0.9-1.7-1.7c0-0.8,0.5-1.4,1.4-1.4h0.1c0.9,0,1.8,0.1,2.6,0.1c8.1,0,10.9-3.1,11-6
				c-1.3,2.1-3.8,2.8-5.5,2.8c-4.6,0-7.1-2.5-7.1-5.5c0-3,2.8-5.8,7.5-5.8c1.7,0,3.1,0.5,4.1,0.9l-0.1-3.3h-2
				c-4.5,0-8.8,0.1-13.3,0.3h-0.1c-0.9,0-1.4-0.8-1.4-1.4c0-0.7,0.4-1.4,1.3-1.4c5.1,0,10.1-0.1,15.2-0.1c-0.1-1-0.1-2.4-0.1-2.4
				c0-0.9,0.8-1.3,1.6-1.3s1.6,0.5,1.6,1.4c0,0.8,0,1.6,0,2.4h6.2c0.9,0,1.4,0.7,1.4,1.4C151.7,51.1,151.2,51.8,150.3,51.8
				L150.3,51.8z M137.3,56.6c-2.8,0-4.5,1.4-4.5,3.1c0,1.6,1.6,2.9,4.2,2.9c2.9,0,4.5-1.7,4.5-3.3C141.5,57.9,140.2,56.6,137.3,56.6
				z"/>
			<path class="st1" d="M168.6,70.6c-9.8,0-12.6-3.9-12.6-7c0-2,1.4-4.7,3-4.7c0.8,0,1.6,0.7,1.6,1.4c0,0.3-0.1,0.7-0.5,0.9
				c-0.8,0.8-1.2,1.4-1.2,2.2c0,1.7,2.2,3.9,9.1,3.9c3.3,0,6.7-0.5,8.9-1.2c0.1,0,0.4-0.1,0.5-0.1c0.9,0,1.6,0.8,1.6,1.7
				c0,0.7-0.4,1.4-1.4,1.7C175.2,70.3,171.9,70.6,168.6,70.6z M175.2,51.4c-0.1,0-0.3,0-0.4,0c-2.9-0.5-5.8-0.8-8.4-0.8
				c-2.9,0-5.5,0.3-7.7,0.5c0,0-0.1,0-0.3,0c-0.8,0-1.3-0.8-1.3-1.6c0-0.7,0.4-1.4,1.4-1.6c2.4-0.3,5.2-0.5,8-0.5s5.6,0.1,8,0.5
				c-0.4-0.8-0.9-1.7-1.3-2.4c-0.1-0.1-0.1-0.4-0.1-0.5c0-0.5,0.5-1,1.2-1c0.4,0,0.8,0.1,1,0.7c1.8,3,2.4,4.1,2.4,4.7
				c0,0.7-0.7,1.2-1.2,1.2c-0.1,0-0.3,0-0.4,0C176.1,51.1,175.7,51.4,175.2,51.4z M177.7,45.5c-0.1-0.3-0.1-0.4-0.1-0.5
				c0-0.5,0.5-0.9,1.2-0.9c0.4,0,0.8,0.3,1,0.7c0.8,1.3,1.6,2.5,2.1,4.1c0,0.1,0.1,0.4,0.1,0.5c0,0.7-0.7,1.2-1.2,1.2
				c-0.4,0-0.9-0.3-1-0.8C179.1,47.9,178.3,46.6,177.7,45.5z"/>
			<path class="st1" d="M203.9,52.3c0-0.9,0.7-1.4,1.4-1.4c0.8,0,1.6,0.5,1.7,1.6c0,0.5,0,1,0,1.6c0,1.7-0.1,3.7-0.5,5.6
				c1.3,0.9,2.4,2,3.3,3c0.3,0.4,0.4,0.8,0.4,1.2c0,0.9-0.8,1.7-1.6,1.7c-0.4,0-0.8-0.1-1.2-0.5c-0.5-0.7-1.2-1.3-1.8-2
				c-2.9,8-9.6,8.4-9.6,8.4c-1,0-1.6-0.8-1.6-1.6c0-0.7,0.4-1.2,1.2-1.4c4.3-0.8,6.6-3.9,7.5-7.5c-2.2-1.6-4.9-2.6-7.5-3
				c-2.5,7.5-4.3,11.5-7.9,11.5c-2.4,0-4.3-2.4-4.3-5.6c0-3.9,2.9-8.7,10.2-8.7c1.6-5.2,1.6-5.4,1.6-5.5c0-0.4-0.3-0.7-0.8-0.7h-0.1
				c-1.3,0-3,0.3-4.6,0.3c-1.4,0-3,0-3-1.6c0-0.7,0.5-1.4,1.4-1.4h0.1c0.7,0,1.4,0.1,2.2,0.1c1.7,0,3.3-0.1,4.9-0.3h0.3
				c1.8,0,2.9,1,2.9,2.5c0,0.4,0,0.8-0.3,1.2c-0.5,1.7-1.2,3.7-1.8,5.6c2.5,0.4,5,1.3,7.2,2.5c0.1-1,0.1-2.1,0.1-3.1
				c0-0.9,0-1.7-0.1-2.5l0,0C203.7,52.3,203.9,52.3,203.9,52.3z M190.5,58.3c-3.3,0.9-4.3,3.8-4.3,5.6c0,2.1,1.4,2.5,1.7,2.5
				c1.6,0,3-2.9,4.9-8.5C192,57.9,191.2,58.1,190.5,58.3z"/>
		</g>
	</g>
</g>
<g id="settings">
</g>
</svg>
