<?xml version="1.0" encoding="utf-8"?>
<!-- Generator: Adobe Illustrator 24.0.2, SVG Export Plug-In . SVG Version: 6.00 Build 0)  -->
<svg version="1.1" id="exportSVG" xmlns="http://www.w3.org/2000/svg" xmlns:xlink="http://www.w3.org/1999/xlink" x="0px" y="0px"
	 viewBox="0 0 275.3 119" style="enable-background:new 0 0 275.3 119;" xml:space="preserve">
<style type="text/css">
	.st0{enable-background:new    ;}
	.st1{fill:#FFFFFF;}
</style>
<g id="settings">
</g>
<g id="objectsExport">
	<g id="group0">
		<g class="st0">
			<path class="st1" d="M17.8,70.6c-0.1,2.8-0.3,4.9-0.3,7.8c0,0.1,0,0.4,0,0.5c0,2.5,0.8,3.3,3,3.3c3.2,0,5.4-2.8,5.8-5.1
				c0.1-0.5,0.5-0.8,0.9-0.8s0.9,0.3,0.9,0.9c0,0.1,0,0.1,0,0.3c-0.7,3.3-3.7,6.5-7.5,6.5c-3,0-4.9-1.3-4.9-4.9c0-0.1,0-0.4,0-0.5
				c0.1-2.9,0.1-5,0.3-7.9c0-0.5,0.4-0.8,0.9-0.8C17.4,69.7,17.8,70,17.8,70.6L17.8,70.6z M23.2,75c-0.3,0-0.5-0.1-0.7-0.4
				c-0.4-1.1-1.1-2.1-1.6-2.9c-0.1-0.1-0.1-0.3-0.1-0.4c0-0.4,0.4-0.7,0.7-0.7c0.3,0,0.4,0.1,0.7,0.4c1.2,1.7,1.7,2.8,1.7,3.2
				S23.5,75,23.2,75z M25.6,74.3c-0.3,0-0.5-0.1-0.7-0.4c-0.4-0.9-0.9-1.8-1.5-2.6c-0.1-0.1-0.1-0.3-0.1-0.4c0-0.4,0.4-0.5,0.7-0.5
				c0.3,0,0.5,0.1,0.7,0.4c0.7,0.9,1.7,2.4,1.7,2.9C26.4,73.9,26,74.3,25.6,74.3z"/>
			<path class="st1" d="M32,81.1c0,0.5-0.4,0.8-0.8,0.8c-0.3,0-0.7-0.1-0.7-0.7c-0.3-1.1-0.3-2.1-0.3-3.3c0-1.5,0.1-2.8,0.4-4.1
				c0.1-0.4,0.4-0.5,0.7-0.5c0.4,0,0.7,0.3,0.7,0.7v0.1c-0.4,1.6-0.5,2.6-0.5,2.8l0,0c0,0,0,0,0-0.1c0.7-1.5,2.2-2.6,4-3
				c-0.3-0.8-0.3-0.8-0.3-0.9c0-0.4,0.4-0.5,0.8-0.5c0.7,0,0.8,0.5,0.9,1.3c2.4,0.1,4.2,1.6,4.2,4.1c0,2.9-2,4.6-4.6,4.6
				c-0.1,0-0.4,0-0.5,0c-0.1,0.1-1.2,1.6-3.2,1.6c-0.5,0-0.8-0.4-0.8-0.8c0-0.3,0.1-0.7,0.5-0.7c0.8,0,1.3-0.3,1.7-0.5
				c-1.6-0.7-2-1.8-2-2.1c0-0.4,0.4-0.7,0.8-0.7c0.3,0,0.4,0.1,0.5,0.4c0.3,0.7,0.9,1.1,1.6,1.2c0.4-0.9,0.5-2.1,0.5-3.6
				c0-0.3,0-1.2-0.1-2.4c-2.6,0.5-4,3-4,4.8C31.8,80.1,32,80.7,32,81.1L32,81.1z M37.3,75.9c0,0.4,0,0.9,0,1.5c0,1.6-0.1,2.9-0.5,4
				C38.5,81.2,40,80,40,78c0-1.7-1.1-2.6-2.6-2.8v0.7H37.3z"/>
			<path class="st1" d="M46,83.7c-0.7,0-0.9-0.5-0.9-0.9s0.3-0.8,0.8-0.8c5.3-0.1,8.1-1.8,8.1-4.4c0-2-1.3-2.6-3.6-2.6
				c-1.2,0-2.4,0.1-6.1,1.1c-0.1,0-0.1,0-0.3,0c-0.5,0-0.9-0.5-0.9-0.9s0.3-0.8,0.7-0.8c2.9-0.5,4.8-0.8,6.5-0.8
				c3.3,0,5.4,1.2,5.4,4.2C55.7,82.5,49.6,83.7,46,83.7z M45.6,71.7c-0.5,0-0.8-0.4-0.8-0.8s0.3-0.9,0.9-0.9c0.8,0,1.5,0,2,0
				c2,0,3.6,0.1,5.5,0.3c0.5,0,0.8,0.4,0.8,0.8S53.7,72,53.1,72H53c-1.8-0.3-3.3-0.3-5-0.3C47.5,71.7,46.7,71.7,45.6,71.7L45.6,71.7
				z"/>
			<path class="st1" d="M64,72.6c-2.1,0.1-4.5,0.4-6.3,0.5h-0.1c-0.7,0-0.9-0.4-0.9-0.8s0.3-0.8,0.8-0.8c3-0.3,6.9-0.4,12.4-0.5
				c0.7,0,1.1,0.4,1.1,0.9c0,0.9-0.9,0.9-1.5,0.9c-0.4,0-0.8,0-1.1,0c-0.8,0-1.5,0.1-2.4,0.5c-2.6,1.3-3.8,3.3-3.8,5
				c0,2,1.6,3.6,4.6,3.6c0.5,0,1.2,0,1.8-0.1c0.1,0,0.1,0,0.3,0c0.5,0,0.8,0.4,0.8,0.9c0,0.4-0.3,0.8-0.8,0.9
				c-0.7,0.1-1.3,0.1-2,0.1c-4.2,0-6.3-2.4-6.3-5.1c0-2,1.2-4.2,3.6-5.7c0.1,0,0.1-0.1,0.1-0.1C64.1,72.6,64.1,72.6,64,72.6L64,72.6
				z M68.6,77.4c-0.3,0-0.4-0.1-0.5-0.4c-0.3-0.8-0.9-1.8-1.3-2.4c0-0.1-0.1-0.1-0.1-0.3c0-0.3,0.4-0.5,0.7-0.5
				c0.1,0,0.4,0.1,0.5,0.3c0.9,1.3,1.5,2.4,1.5,2.8C69.3,77.1,68.9,77.4,68.6,77.4z M70.7,76.7c-0.3,0-0.4-0.1-0.5-0.4
				c-0.3-0.8-0.8-1.6-1.2-2.2c-0.1-0.1-0.1-0.3-0.1-0.3c0-0.3,0.4-0.5,0.7-0.5s0.4,0.1,0.5,0.3c1.3,2,1.3,2.4,1.3,2.5
				C71.4,76.4,71,76.7,70.7,76.7z"/>
			<path class="st1" d="M76.6,80.4c0-1.2,0.3-2.6,0.4-3.2v-0.1c0-0.5-0.3-0.7-0.5-0.7c-0.1,0-0.4,0.1-0.7,0.3
				c-1.5,0.9-1.7,1.8-2.9,6.2c-0.1,0.5-0.5,0.8-0.9,0.8s-0.8-0.3-0.8-0.8c0-0.4,1.5-5.3,5.1-12.9c0.1-0.4,0.5-0.5,0.8-0.5
				c0.4,0,0.9,0.3,0.9,0.8c0,0.1,0,0.3-0.1,0.5c-1.5,2.6-2.5,4.9-2.5,4.9s0,0,0.3-0.3c0.4-0.3,0.8-0.4,1.2-0.4
				c0.9,0,1.7,0.7,1.7,1.8c0,0.1,0,0.1,0,0.3c0,0.8-0.4,2.2-0.4,3.2c0,1.3,0.5,1.7,1.5,1.7c2.5,0,4.5-2.8,4.8-5.5
				c0-0.5,0.5-0.8,0.9-0.8c0.5,0,0.9,0.4,0.9,0.9v0.1c-0.5,4-3.6,7-6.9,7c-1.6,0-2.9-0.8-2.9-3L76.6,80.4L76.6,80.4z"/>
			<path class="st1" d="M95.4,70.6c-0.1,2.8-0.3,4.9-0.3,7.8c0,0.1,0,0.4,0,0.5c0,2.5,0.8,3.3,3,3.3c3.2,0,5.4-2.8,5.8-5.1
				c0.1-0.5,0.5-0.8,0.9-0.8s0.9,0.3,0.9,0.9c0,0.1,0,0.1,0,0.3C105,80.8,102,84,98.2,84c-3,0-4.9-1.3-4.9-4.9c0-0.1,0-0.4,0-0.5
				c0.1-2.9,0.1-5,0.3-7.9c0-0.5,0.4-0.8,0.9-0.8C94.9,69.7,95.4,70,95.4,70.6L95.4,70.6z"/>
			<path class="st1" d="M112.3,72.6c-2.1,0.1-4.5,0.4-6.3,0.5h-0.1c-0.7,0-0.9-0.4-0.9-0.8s0.3-0.8,0.8-0.8c3-0.3,6.9-0.4,12.4-0.5
				c0.7,0,1.1,0.4,1.1,0.9c0,0.9-0.9,0.9-1.5,0.9c-0.4,0-0.8,0-1.1,0c-0.8,0-1.5,0.1-2.4,0.5c-2.6,1.3-3.8,3.3-3.8,5
				c0,2,1.6,3.6,4.6,3.6c0.5,0,1.2,0,1.8-0.1c0.1,0,0.1,0,0.3,0c0.5,0,0.8,0.4,0.8,0.9c0,0.4-0.3,0.8-0.8,0.9
				c-0.7,0.1-1.3,0.1-2,0.1c-4.2,0-6.3-2.4-6.3-5.1c0-2,1.2-4.2,3.6-5.7c0.1,0,0.1-0.1,0.1-0.1C112.6,72.6,112.6,72.6,112.3,72.6
				L112.3,72.6z"/>
			<path class="st1" d="M129.3,82.9c-0.7,0-1.1-0.4-1.1-0.9s0.3-0.9,0.9-0.9l0,0c0.3,0,0.4,0,0.7,0c5.9,0,8.2-2.4,8.2-4.9
				c0-1.6-1.1-3.4-4.4-3.4c-2.6,0-4.9,0.9-7.1,1.5c-0.1,0-0.3,0-0.4,0c-0.5,0-0.9-0.5-0.9-0.9s0.3-0.8,0.8-0.8
				c2.4-0.5,4.8-1.3,7.5-1.3c4,0,6.3,2.1,6.3,5c0,3.6-3.2,6.6-10,6.6L129.3,82.9L129.3,82.9z"/>
			<path class="st1" d="M148.5,74.1c-0.7,0-1.5,0-2.4,0.1c-0.8,3-2,6.2-3.4,8.8c-0.3,0.4-0.5,0.5-0.9,0.5s-0.8-0.3-0.8-0.8
				c0-0.1,0-0.4,0.1-0.5c1.5-2.4,2.6-5.1,3.3-8.1c-1.6,0.1-2.4,0.1-2.4,0.1c-0.5,0-0.8-0.4-0.8-0.8s0.3-0.8,0.7-0.8
				c0.8,0,1.8,0,2.8-0.1c0.1-0.9,0.3-1.7,0.3-2.6c0-0.5,0.4-0.7,0.8-0.7s0.8,0.3,0.8,0.8c0,0.1,0,1.1-0.3,2.5
				c1.3-0.1,2.2-0.1,2.2-0.1c2.1,0,3,1.1,3,3.8c0,6.6-2.6,7.3-4.1,7.3c-0.7,0-1.3-0.1-2.1-0.4c-0.4-0.1-0.7-0.5-0.7-0.8
				c0-0.4,0.4-0.9,0.8-0.9c0.1,0,0.3,0,0.4,0c0.5,0.1,1.1,0.4,1.6,0.4c0.7,0,1.2-0.3,1.6-0.9c0.8-1.5,0.8-4.2,0.8-4.6
				C150,74.3,149.5,74.1,148.5,74.1L148.5,74.1z M154.1,76.7c-0.5-1.7-1.6-3.3-2.8-4.4c-0.3-0.1-0.3-0.4-0.3-0.7
				c0-0.4,0.4-0.8,0.8-0.8c0.3,0,0.5,0.1,0.8,0.3c1.8,1.7,3.3,4.2,3.3,5.1c0,0.7-0.4,0.9-0.9,0.9C154.7,77.4,154.3,77.2,154.1,76.7z
				"/>
			<path class="st1" d="M159.8,83.7c-0.7,0-0.9-0.5-0.9-0.9s0.3-0.8,0.8-0.8c5.3-0.1,8.1-1.8,8.1-4.4c0-2-1.3-2.6-3.6-2.6
				c-1.2,0-2.4,0.1-6.1,1.1c-0.1,0-0.1,0-0.3,0c-0.5,0-0.9-0.5-0.9-0.9s0.3-0.8,0.7-0.8c2.9-0.5,4.8-0.8,6.5-0.8
				c3.3,0,5.4,1.2,5.4,4.2C169.4,82.5,163.2,83.7,159.8,83.7z M159.4,71.7c-0.5,0-0.8-0.4-0.8-0.8s0.3-0.9,0.9-0.9c0.8,0,1.5,0,2,0
				c2,0,3.6,0.1,5.5,0.3c0.5,0,0.8,0.4,0.8,0.8s-0.3,0.9-0.9,0.9h-0.1c-1.8-0.3-3.3-0.3-5-0.3C161.3,71.7,160.3,71.7,159.4,71.7
				L159.4,71.7z"/>
			<path class="st1" d="M181.1,78.5c0,0.1,0,0.4,0,0.5c0,2.2,1.1,3.2,3.2,3.2c2.8,0,4.2-1.7,4.2-3.6c0-1.2-0.5-2.5-1.5-3.6
				c-0.3-0.3-0.3-0.4-0.3-0.7c0-0.4,0.4-0.8,0.8-0.8c0.3,0,0.5,0.1,0.7,0.3c1.3,1.3,2,2.9,2,4.6c0,2.6-1.8,5.1-5.8,5.1
				c-3.2,0-4.8-1.8-4.8-4.6c0-0.3,0-0.5,0-0.8l0,0c-0.8,0-1.5,0-2.2-0.1c-0.5,0-0.7-0.4-0.7-0.8s0.3-0.8,0.8-0.8h0.1
				c0.8,0.1,1.5,0.1,2.2,0.1c0.1-0.8,0.1-1.7,0.3-2.5c-0.9,0-1.7,0-2.5-0.1c-0.4,0-0.7-0.4-0.7-0.8s0.3-0.8,0.8-0.8h0.1
				c0.8,0.1,1.7,0.1,2.5,0.1c0.1-0.9,0.3-1.7,0.4-2.6c0.1-0.5,0.4-0.8,0.8-0.8c0.4,0,0.9,0.3,0.9,0.8l-0.4,2.5
				c0.9,0,1.8-0.1,2.8-0.3h0.1c0.5,0,0.8,0.4,0.8,0.8s-0.3,0.7-0.7,0.8c-0.9,0.1-2.1,0.3-3.3,0.3c-0.1,0.8-0.3,1.7-0.3,2.5
				c1.2,0,2.4-0.1,3.6-0.3h0.1c0.5,0,0.8,0.4,0.8,0.8s-0.3,0.7-0.7,0.8c-1.2,0.1-2.5,0.3-3.8,0.3L181.1,78.5z"/>
			<path class="st1" d="M199.9,72.5c0,1.7-1.1,6.3-2.8,8.8c-0.5,0.8-1.3,1.3-2.1,1.3c-1.3,0-3.4-1.7-3.4-5c0-3.7,2.8-7.3,7.5-7.3
				c4.5,0,7.1,3,7.1,6.3c0,5.5-5,6.7-6.7,6.7c-0.7,0-0.9-0.4-0.9-0.9c0-0.4,0.3-0.8,0.8-0.8c4.6-0.3,5.1-3.6,5.1-5c0-3-2.2-4.8-5-5
				C199.7,71.9,199.9,72.2,199.9,72.5z M193.3,77.6c0,1.8,0.9,3.3,1.7,3.3c1.6,0,3.2-5.9,3.2-8.4c0-0.3,0.1-0.5,0.4-0.7
				C195.4,72.1,193.3,74.6,193.3,77.6z"/>
			<path class="st1" d="M209,76.7c0-0.9,0.8-1.7,1.7-1.7s1.7,0.8,1.7,1.7c0,0.9-0.8,1.7-1.7,1.7S209,77.6,209,76.7z"/>
			<path class="st1" d="M222.2,72.6c-2.1,0.1-4.5,0.4-6.3,0.5h-0.1c-0.7,0-0.9-0.4-0.9-0.8s0.3-0.8,0.8-0.8c3-0.3,6.9-0.4,12.4-0.5
				c0.7,0,1.1,0.4,1.1,0.9c0,0.9-0.9,0.9-1.5,0.9c-0.4,0-0.8,0-1.1,0c-0.8,0-1.5,0.1-2.4,0.5c-2.6,1.3-3.8,3.3-3.8,5
				c0,2,1.6,3.6,4.6,3.6c0.5,0,1.2,0,1.8-0.1c0.1,0,0.1,0,0.3,0c0.5,0,0.8,0.4,0.8,0.9c0,0.4-0.3,0.8-0.8,0.9
				c-0.7,0.1-1.3,0.1-2,0.1c-4.2,0-6.3-2.4-6.3-5.1c0-2,1.2-4.2,3.6-5.7c0.1,0,0.1-0.1,0.1-0.1C222.5,72.6,222.4,72.6,222.2,72.6
				L222.2,72.6z M226.9,77.4c-0.3,0-0.4-0.1-0.5-0.4c-0.3-0.8-0.9-1.8-1.3-2.4c0-0.1-0.1-0.1-0.1-0.3c0-0.3,0.4-0.5,0.7-0.5
				c0.1,0,0.4,0.1,0.5,0.3c0.9,1.3,1.5,2.4,1.5,2.8C227.5,77.1,227.3,77.4,226.9,77.4z M229,76.7c-0.3,0-0.4-0.1-0.5-0.4
				c-0.3-0.8-0.8-1.6-1.2-2.2c-0.1-0.1-0.1-0.3-0.1-0.3c0-0.3,0.4-0.5,0.7-0.5s0.4,0.1,0.5,0.3c1.3,2,1.3,2.4,1.3,2.5
				C229.6,76.4,229.4,76.7,229,76.7z"/>
			<path class="st1" d="M235,80.4c0-1.2,0.3-2.6,0.4-3.2v-0.1c0-0.5-0.3-0.7-0.5-0.7c-0.1,0-0.4,0.1-0.7,0.3
				c-1.5,0.9-1.7,1.8-2.9,6.2c-0.1,0.5-0.5,0.8-0.9,0.8s-0.8-0.3-0.8-0.8c0-0.4,1.5-5.3,5.1-12.9c0.1-0.4,0.5-0.5,0.8-0.5
				c0.4,0,0.9,0.3,0.9,0.8c0,0.1,0,0.3-0.1,0.5c-1.5,2.6-2.5,4.9-2.5,4.9s0,0,0.3-0.3c0.4-0.3,0.8-0.4,1.2-0.4
				c0.9,0,1.7,0.7,1.7,1.8c0,0.1,0,0.1,0,0.3c0,0.8-0.4,2.2-0.4,3.2c0,1.3,0.5,1.7,1.5,1.7c2.5,0,4.5-2.8,4.8-5.5
				c0-0.5,0.5-0.8,0.9-0.8c0.5,0,0.9,0.4,0.9,0.9v0.1c-0.5,4-3.6,7-6.9,7c-1.6,0-2.9-0.8-2.9-3L235,80.4L235,80.4z"/>
			<path class="st1" d="M256.8,79.5c0-1.3-1.2-2.1-3.6-2.1c-2,0-4.1,0.8-5.3,1.7c-0.3,0.1-0.4,0.3-0.7,0.3c-0.5,0-0.9-0.4-0.9-0.8
				c0-0.1,0-0.4,0.3-0.5c0.8-1.1,1.6-2.6,2.4-4.4c-1.1,0-2,0-2.8-0.1c-0.5,0-0.8-0.4-0.8-0.8s0.3-0.8,0.8-0.8h0.1
				c0.9,0.1,2.1,0.1,3.2,0.1c0.3-0.7,0.4-1.2,0.5-1.8c0.1-0.4,0.5-0.5,0.8-0.5c0.4,0,0.9,0.3,0.9,0.7c0,0.3-0.4,1.2-0.5,1.7
				c2.1,0,4.2-0.3,5.7-0.4h0.1c0.5,0,0.8,0.4,0.8,0.8s-0.3,0.8-0.7,0.8c-1.7,0.1-4.2,0.3-6.6,0.4c-0.7,1.3-1.2,2.5-1.6,3v0.1l0,0
				h0.1c1.8-0.9,3.7-0.9,4.4-0.9c2.9,0,5.1,1.2,5.1,3.6c0,2.8-3,4.5-7.3,4.5c-1.2,0-2.5-0.1-4-0.4c-0.5-0.1-0.8-0.5-0.8-0.9
				s0.3-0.8,0.8-0.8c0.1,0,0.1,0,0.3,0c1.3,0.4,2.6,0.5,3.7,0.5C254.8,82.2,256.8,80.8,256.8,79.5L256.8,79.5z"/>
		</g>
	</g>
</g>
<g id="objectsExport_2_">
	<g id="group0_1_">
		<g class="st0">
			<path class="st1" d="M37.9,50.4c0,0.4,0,0.7,0,0.9c0,4,2,5.8,5.8,5.8c5.1,0,7.7-3,7.7-6.6c0-2.2-0.9-4.5-2.8-6.5
				c-0.4-0.4-0.5-0.8-0.5-1.2c0-0.8,0.7-1.5,1.5-1.5c0.4,0,0.9,0.1,1.3,0.5c2.4,2.4,3.6,5.4,3.6,8.4c0,4.9-3.4,9.5-10.7,9.5
				c-5.7,0-8.7-3.3-8.7-8.6c0-0.5,0-0.9,0-1.5l0,0c-1.3,0-2.8-0.1-4.1-0.3c-0.9-0.1-1.3-0.8-1.3-1.5s0.5-1.5,1.5-1.5h0.3
				c1.5,0.1,2.8,0.3,4.1,0.3c0.1-1.6,0.4-3,0.5-4.6c-1.6,0-3.2-0.1-4.6-0.3c-0.8,0-1.3-0.7-1.3-1.3s0.5-1.3,1.5-1.3H32
				c1.6,0.1,3.2,0.3,4.6,0.3c0.3-1.6,0.4-3.2,0.7-4.8c0.1-0.9,0.8-1.5,1.6-1.5s1.6,0.5,1.6,1.5l-0.8,4.6c1.7,0,3.4-0.1,5.1-0.4h0.3
				c0.9,0,1.3,0.7,1.3,1.3s-0.4,1.2-1.2,1.3c-1.8,0.3-3.8,0.4-6.1,0.4c-0.3,1.6-0.4,3-0.5,4.6c2.1-0.1,4.2-0.3,6.5-0.5
				c0.1,0,0.1,0,0.3,0c0.9,0,1.5,0.7,1.5,1.3s-0.4,1.3-1.3,1.5c-2.2,0.3-4.6,0.5-7.1,0.5L37.9,50.4z"/>
			<path class="st1" d="M61.8,42.5c-0.4-1.3-1.3-4.9-1.3-5.4c0-0.9,0.8-1.5,1.6-1.5c0.7,0,1.3,0.4,1.5,1.2c0.3,1.5,0.7,3,1.2,4.8
				C65.6,41.3,73,39,76.7,39c4.2,0,7.7,2.4,7.7,6.7c0,4.8-4.6,7.4-9.4,7.4c-1.5,0-2.9-0.3-4.4-0.7c-0.8-0.3-1.2-0.9-1.2-1.6
				s0.5-1.5,1.5-1.5c0.1,0,0.4,0,0.5,0.1c1.3,0.4,2.6,0.7,3.7,0.7c3.8,0,6.1-2.2,6.1-4.6c0-1.8-1.3-3.8-4.6-3.8
				c-1.6,0-5.1,0.7-11,2.6c1.3,4.1,3,8.7,5.3,13.5c0.1,0.3,0.1,0.5,0.1,0.7c0,0.9-0.9,1.6-1.7,1.6c-0.5,0-1.1-0.3-1.5-0.9
				c-2-4.8-3.7-9.5-5.1-13.7c-1.1,0.4-2.2,0.8-3.2,1.2c-0.3,0.1-0.5,0.1-0.7,0.1c-0.9,0-1.6-0.8-1.6-1.6c0-0.5,0.3-1.1,0.9-1.3
				L61.8,42.5z M75.5,36.8c-0.5,0-1.1,0-1.6,0c-2,0-4.1,0.3-5.5,0.5c0,0-0.1,0-0.3,0c-0.8,0-1.2-0.7-1.2-1.3s0.4-1.2,1.2-1.3
				c1.7-0.4,4.4-0.5,6.5-0.5c1.3,0,2.8,0,2.8,1.5c0,0.7-0.5,1.5-1.6,1.5h-0.3V36.8z"/>
			<path class="st1" d="M109.8,35.6c0,1.6,0,3.3-0.1,5.1c2.5-0.1,4-0.1,4.1-0.1c0.9,0,1.5,0.7,1.5,1.5s-0.5,1.6-1.5,1.6
				c-1.3,0-2.8,0-4.1,0c-0.1,5.5-0.3,8.7-4.9,8.7c-1.1,0-2.1-0.1-3.4-0.5c-0.9-0.1-1.2-0.8-1.2-1.5c0-0.8,0.5-1.5,1.3-1.5
				c0.1,0,0.3,0,0.3,0c1.2,0.3,2.1,0.5,2.8,0.5c1.6,0,2-0.5,2.2-5.7c-3.8,0.1-7.4,0.3-10.7,0.5c0,0.9,0,1.8,0,2.8
				c0,1.8,0,3.4,0.1,4.9c0.1,3.6,1.6,4.5,6.7,4.5c2.2,0,4.5-0.3,6.7-0.7c0.1,0,0.3,0,0.4,0c0.9,0,1.6,0.8,1.6,1.6
				c0,0.7-0.5,1.5-1.6,1.6c-2.4,0.3-4,0.5-7,0.5c-7.3,0-9.5-2.2-9.6-7.3c0-1.3-0.1-2.9-0.1-4.6c0-0.9,0-2,0-3
				c-1.5,0.1-2.9,0.3-4.2,0.3H89c-0.9,0-1.5-0.7-1.5-1.5c0-0.7,0.4-1.5,1.5-1.5l4.5-0.3c0-2,0-3.8,0-5.3l0,0c0-0.9,0.8-1.3,1.5-1.3
				s1.5,0.5,1.5,1.5c0,1.6,0,3.3,0,5.1c4-0.3,7.4-0.4,10.7-0.5c0-1.7,0-3.6,0-5.3c0-0.8,0.8-1.2,1.5-1.2
				C109.1,34.3,109.8,34.7,109.8,35.6L109.8,35.6z"/>
			<path class="st1" d="M120.4,37.8c0.8,0.1,1.7,0.1,2.5,0.1c0.9,0,1.8,0,2.8-0.1c0.3-1.1,0.4-2,0.5-3c0.1-0.8,0.8-1.2,1.5-1.2
				c0.8,0,1.7,0.5,1.7,1.3c0,0.1,0,0.1,0,0.3c-0.1,0.7-0.3,1.3-0.4,2c0.7-0.1,1.3-0.3,2-0.5c0.1,0,0.3,0,0.5,0
				c0.8,0,1.3,0.7,1.3,1.5c0,0.9-0.4,1.6-4.6,2.2c-1.5,4.6-3.8,9.2-6.1,13.3c-0.4,0.8-1.1,1.1-1.7,1.1c-0.8,0-1.6-0.5-1.6-1.5
				c0-0.3,0.1-0.7,0.4-1.1c2.1-3.3,4.4-7.5,5.7-11.6c-0.7,0-1.3,0.1-2,0.1c-2.4,0-4,0-4-1.6c0-0.7,0.5-1.5,1.5-1.5l0,0L120.4,37.8
				L120.4,37.8z M132,59.8c-3.3,0-6.7-2-6.7-5c0-2.4,2.2-5,7.3-5c1.1,0,2.1,0.1,3.2,0.4c-0.1-5.3-0.1-5.3-0.1-5.4
				c0-0.9,0.8-1.3,1.6-1.3s1.6,0.5,1.6,1.5c0,2,0,4.2,0,6.3c2,0.9,3.8,2.2,5.3,3.7c0.4,0.4,0.5,0.8,0.5,1.2c0,0.9-0.7,1.6-1.5,1.6
				c-0.4,0-0.8-0.1-1.2-0.7c-0.8-0.9-1.8-1.8-3-2.5C138.4,58,135.5,59.8,132,59.8z M135.7,52.9c-1.1-0.4-2.2-0.7-3.3-0.7
				c-2.4,0-4.2,1.1-4.2,2.4c0,1.6,2.2,2.2,3.7,2.2c2.1,0,3.8-1.3,3.8-3.8V52.9z M142.8,42.1c-1.5-0.7-3-0.9-4.8-0.9
				c-0.9,0-2,0.1-3,0.3c-0.1,0-0.1,0-0.3,0c-0.8,0-1.3-0.7-1.3-1.5c0-1.2,0.8-1.7,4.8-1.7c2.1,0,4.4,0.3,5.8,0.9
				c0.7,0.3,0.9,0.9,0.9,1.5c0,0.8-0.5,1.5-1.5,1.5C143.4,42.2,143.1,42.2,142.8,42.1z"/>
			<path class="st1" d="M156.8,59.5c-2.8,0-7.3-2.8-7.3-15.4c0-2.4,0.1-4.5,0.4-6.2c0.1-1.1,0.9-1.6,1.6-1.6c0.8,0,1.6,0.5,1.6,1.5
				c0,0.1,0,0.3,0,0.3c-0.3,1.8-0.5,4.1-0.5,6.5c0,8.4,2.4,11.6,4,11.6c0.7,0,1.8-0.5,3.2-5.1c0.3-0.8,0.8-1.2,1.5-1.2
				c0.8,0,1.7,0.7,1.7,1.7s-1.2,4.2-2.4,5.9C159.6,58.9,158.3,59.5,156.8,59.5z M171.6,53.7c0-6.1-1.6-10.4-4.9-14.5
				c-0.3-0.3-0.3-0.5-0.3-0.8c0-0.8,0.7-1.5,1.6-1.5c0.4,0,0.9,0.1,1.2,0.7c3.7,4.2,5.8,9.8,5.8,16.2c0,1.2-0.9,1.8-1.7,1.8
				s-1.6-0.5-1.6-1.7v-0.3L171.6,53.7L171.6,53.7z"/>
			<path class="st1" d="M203.2,59.4c-9.9,0-12.7-4-12.7-7c0-2,1.5-4.8,3-4.8c0.8,0,1.6,0.7,1.6,1.5c0,0.3-0.1,0.7-0.5,0.9
				c-0.8,0.8-1.2,1.5-1.2,2.2c0,1.7,2.2,4,9.1,4c3.3,0,6.7-0.5,9-1.2c0.1,0,0.4-0.1,0.5-0.1c0.9,0,1.6,0.8,1.6,1.7
				c0,0.7-0.4,1.5-1.5,1.7C209.8,58.9,206.6,59.4,203.2,59.4z M209.9,39.9c-0.1,0-0.3,0-0.4,0c-2.9-0.5-5.8-0.8-8.4-0.8
				c-2.9,0-5.5,0.3-7.8,0.5c0,0-0.1,0-0.3,0c-0.8,0-1.3-0.8-1.3-1.6c0-0.7,0.4-1.5,1.5-1.6c2.4-0.3,5.3-0.5,8.1-0.5s5.7,0.1,8.1,0.5
				c-0.4-0.8-0.9-1.7-1.3-2.4c-0.1-0.1-0.1-0.4-0.1-0.5c0-0.5,0.5-1.1,1.2-1.1c0.4,0,0.8,0.1,1.1,0.7c1.8,3,2.4,4.1,2.4,4.8
				s-0.7,1.2-1.2,1.2c-0.1,0-0.3,0-0.4,0C210.7,39.6,210.4,39.9,209.9,39.9z M212.3,33.9c-0.1-0.3-0.1-0.4-0.1-0.5
				c0-0.5,0.5-0.9,1.2-0.9c0.4,0,0.8,0.3,1.1,0.7c0.8,1.3,1.6,2.5,2.2,4.1c0,0.1,0.1,0.4,0.1,0.5c0,0.7-0.7,1.2-1.2,1.2
				c-0.4,0-0.9-0.3-1.1-0.8C213.7,36.6,212.9,35.1,212.3,33.9z"/>
			<path class="st1" d="M238.5,40.8c0-0.9,0.7-1.5,1.5-1.5s1.6,0.5,1.7,1.6c0,0.5,0,1.1,0,1.6c0,1.7-0.1,3.7-0.5,5.7
				c1.3,0.9,2.4,2,3.3,3c0.3,0.4,0.4,0.8,0.4,1.2c0,0.9-0.8,1.7-1.6,1.7c-0.4,0-0.8-0.1-1.2-0.5c-0.5-0.7-1.2-1.3-1.8-2
				c-2.9,8.1-9.6,8.4-9.6,8.4c-1.1,0-1.6-0.8-1.6-1.6c0-0.7,0.4-1.2,1.2-1.5c4.4-0.8,6.6-4,7.5-7.5c-2.2-1.6-4.9-2.6-7.5-3
				c-2.5,7.5-4.4,11.6-7.9,11.6c-2.4,0-4.4-2.4-4.4-5.7c0-4,2.9-8.7,10.3-8.7c1.6-5.3,1.6-5.4,1.6-5.5c0-0.4-0.3-0.7-0.8-0.7H229
				c-1.3,0-3,0.3-4.6,0.3c-1.5,0-3,0-3-1.6c0-0.7,0.5-1.5,1.5-1.5h0.1c0.7,0,1.5,0.1,2.2,0.1c1.7,0,3.3-0.1,4.9-0.3h0.3
				c1.8,0,2.9,1.1,2.9,2.5c0,0.4,0,0.8-0.3,1.2c-0.5,1.7-1.2,3.7-1.8,5.7c2.5,0.4,5,1.3,7.3,2.5c0.1-1.1,0.1-2.1,0.1-3.2
				c0-0.9,0-1.7-0.1-2.5l0,0h0V40.8z M225.1,46.9c-3.3,0.9-4.4,3.8-4.4,5.7c0,2.1,1.5,2.5,1.7,2.5c1.6,0,3-2.9,4.9-8.6
				C226.7,46.5,225.9,46.6,225.1,46.9z"/>
		</g>
	</g>
</g>
</svg>
