<?xml version="1.0" encoding="utf-8"?>
<!-- Generator: Adobe Illustrator 24.0.2, SVG Export Plug-In . SVG Version: 6.00 Build 0)  -->
<svg version="1.1" id="exportSVG" xmlns="http://www.w3.org/2000/svg" xmlns:xlink="http://www.w3.org/1999/xlink" x="0px" y="0px"
	 viewBox="0 0 275.3 119" style="enable-background:new 0 0 275.3 119;" xml:space="preserve">
<style type="text/css">
	.st0{enable-background:new    ;}
	.st1{fill:#FFFFFF;}
</style>
<g id="settings">
</g>
<g id="objectsExport_1_">
	<g id="group0_1_">
		<g class="st0">
			<path class="st1" d="M69.5,62.5c0,0.4,0,0.7,0,0.9c0,4,2,5.8,5.8,5.8c5.1,0,7.7-3,7.7-6.6c0-2.2-0.9-4.5-2.8-6.5
				c-0.4-0.4-0.5-0.8-0.5-1.2c0-0.8,0.7-1.5,1.5-1.5c0.4,0,0.9,0.1,1.3,0.5c2.4,2.4,3.6,5.4,3.6,8.4c0,4.9-3.4,9.5-10.7,9.5
				c-5.7,0-8.7-3.3-8.7-8.6c0-0.5,0-0.9,0-1.5l0,0c-1.3,0-2.8-0.1-4.1-0.3c-0.9-0.1-1.3-0.8-1.3-1.5s0.5-1.5,1.5-1.5h0.3
				c1.5,0.1,2.8,0.3,4.1,0.3c0.1-1.6,0.4-3,0.5-4.6c-1.6,0-3.2-0.1-4.6-0.3c-0.8,0-1.3-0.7-1.3-1.3s0.5-1.3,1.5-1.3h0.3
				c1.6,0.1,3.2,0.3,4.6,0.3c0.3-1.6,0.4-3.2,0.7-4.8c0.1-0.9,0.8-1.5,1.6-1.5c0.8,0,1.6,0.5,1.6,1.5l-1.1,5c1.7,0,3.4-0.1,5.1-0.4
				h0.3c0.9,0,1.3,0.7,1.3,1.3s-0.4,1.2-1.2,1.3c-1.8,0.3-3.8,0.4-6.1,0.4c-0.3,1.6-0.4,3-0.5,4.6c2.1-0.1,4.2-0.3,6.5-0.5
				c0.1,0,0.1,0,0.3,0c0.9,0,1.5,0.7,1.5,1.3s-0.4,1.3-1.3,1.5c-2.2,0.3-4.6,0.5-7.1,0.5L69.5,62.5z"/>
			<path class="st1" d="M93.4,54.7c-0.4-1.3-1.3-4.9-1.3-5.4c0-0.9,0.8-1.5,1.6-1.5c0.7,0,1.3,0.4,1.5,1.2c0.3,1.5,0.7,3,1.2,4.8
				c0.8-0.3,8.2-2.6,11.9-2.6c4.2,0,7.7,2.4,7.7,6.7c0,4.8-4.6,7.4-9.4,7.4c-1.5,0-2.9-0.3-4.4-0.7c-0.8-0.3-1.2-0.9-1.2-1.6
				s0.5-1.5,1.5-1.5c0.1,0,0.4,0,0.5,0.1c1.3,0.4,2.6,0.7,3.7,0.7c3.8,0,6.1-2.2,6.1-4.6c0-1.8-1.3-3.8-4.6-3.8
				c-1.6,0-5.1,0.7-11,2.6c1.3,4.1,3,8.7,5.3,13.5c0.1,0.3,0.1,0.5,0.1,0.7c0,0.9-0.9,1.6-1.7,1.6c-0.5,0-1.1-0.3-1.5-0.9
				c-2-4.8-3.7-9.5-5.1-13.7C93.2,58,92,58.4,91,58.8C90.8,59,90.5,59,90.4,59c-0.9,0-1.6-0.8-1.6-1.6c0-0.5,0.3-1.1,0.9-1.3
				L93.4,54.7z M107.1,49.1c-0.5,0-1.1,0-1.6,0c-2,0-4.1,0.3-5.5,0.5c0,0-0.1,0-0.3,0c-0.8,0-1.2-0.7-1.2-1.3s0.4-1.2,1.2-1.3
				c1.7-0.4,4.4-0.5,6.5-0.5c1.3,0,2.8,0,2.8,1.5c0,0.7-0.5,1.5-1.6,1.5h-0.3V49.1z"/>
			<path class="st1" d="M145,52.5c-2,0-4.1-0.1-6.1-0.1c0,1.6,0,3.3,0,4.9c1.1,1.7,1.5,3,1.5,4.9c0,4.5-3.4,10.2-15.2,10.2
				c-0.5,0-1.1,0-1.7,0c-1.2,0-1.7-0.9-1.7-1.7s0.5-1.5,1.5-1.5h0.1c0.9,0,1.8,0.1,2.6,0.1c8.2,0,11-3.2,11.1-6.1
				c-1.3,2.1-3.8,2.8-5.5,2.8c-4.6,0-7.1-2.5-7.1-5.5s2.8-5.8,7.5-5.8c1.7,0,3.2,0.5,4.1,0.9l-0.1-3.3h-2c-4.5,0-8.8,0.1-13.3,0.3
				l0,0c-0.9,0-1.5-0.8-1.5-1.5s0.4-1.5,1.3-1.5c5.1,0,10.2-0.1,15.3-0.1c-0.1-1.1-0.1-2.4-0.1-2.4c0-0.9,0.8-1.3,1.6-1.3
				s1.6,0.5,1.6,1.5c0,0.8,0,1.6,0,2.4h6.2c0.9,0,1.5,0.7,1.5,1.5S146.1,52.5,145,52.5L145,52.5z M132,57.4c-2.8,0-4.5,1.5-4.5,3.2
				c0,1.6,1.6,2.9,4.2,2.9c2.9,0,4.5-1.7,4.5-3.3C136.2,58.7,134.9,57.4,132,57.4z"/>
			<path class="st1" d="M174.1,71.5c-9.9,0-12.7-4-12.7-7c0-2,1.5-4.8,3-4.8c0.8,0,1.6,0.7,1.6,1.5c0,0.3-0.1,0.7-0.5,0.9
				c-0.8,0.8-1.2,1.5-1.2,2.2c0,1.7,2.2,4,9.1,4c3.3,0,6.7-0.5,9-1.2c0.1,0,0.4-0.1,0.5-0.1c0.9,0,1.6,0.8,1.6,1.7
				c0,0.7-0.4,1.5-1.5,1.7C180.7,71.1,177.5,71.5,174.1,71.5z M180.8,52.1c-0.1,0-0.3,0-0.4,0c-2.9-0.5-5.8-0.8-8.4-0.8
				c-2.9,0-5.5,0.3-7.8,0.5c0,0-0.1,0-0.3,0c-0.8,0-1.3-0.8-1.3-1.6c0-0.7,0.4-1.5,1.5-1.6c2.4-0.3,5.3-0.5,8.1-0.5s5.7,0.1,8.1,0.5
				c-0.4-0.8-0.9-1.7-1.3-2.4c-0.1-0.1-0.1-0.4-0.1-0.5c0-0.5,0.5-1.1,1.2-1.1c0.4,0,0.8,0.1,1.1,0.7c1.8,3,2.4,4.1,2.4,4.8
				s-0.7,1.2-1.2,1.2c-0.1,0-0.3,0-0.4,0C181.7,51.8,181.3,52.1,180.8,52.1z M183.2,46.2c-0.1-0.3-0.1-0.4-0.1-0.5
				c0-0.5,0.5-0.9,1.2-0.9c0.4,0,0.8,0.3,1.1,0.7c0.8,1.3,1.6,2.5,2.2,4.1c0,0.1,0.1,0.4,0.1,0.5c0,0.7-0.7,1.2-1.2,1.2
				c-0.4,0-0.9-0.3-1.1-0.8C184.6,48.7,183.8,47.3,183.2,46.2z"/>
			<path class="st1" d="M209.4,53c0-0.9,0.8-1.5,1.5-1.5c0.8,0,1.6,0.5,1.7,1.6c0,0.5,0,1.1,0,1.6c0,1.7-0.1,3.7-0.5,5.7
				c1.3,0.9,2.4,2,3.3,3c0.3,0.4,0.4,0.8,0.4,1.2c0,0.9-0.8,1.7-1.6,1.7c-0.4,0-0.8-0.1-1.2-0.5c-0.5-0.7-1.2-1.3-1.8-2
				c-2.9,8.1-9.6,8.4-9.6,8.4c-1.1,0-1.6-0.8-1.6-1.6c0-0.7,0.4-1.2,1.2-1.5c4.4-0.8,6.6-4,7.5-7.5c-2.2-1.6-4.9-2.6-7.5-3
				c-2.5,7.5-4.4,11.6-7.9,11.6c-2.4,0-4.4-2.4-4.4-5.7c0-4,2.9-8.7,10.3-8.7c1.6-5.3,1.6-5.4,1.6-5.5c0-0.4-0.3-0.7-0.8-0.7h-0.1
				c-1.3,0-3,0.3-4.6,0.3c-1.5,0-3,0-3-1.6c0-0.7,0.5-1.5,1.5-1.5h0.1c0.7,0,1.5,0.1,2.2,0.1c1.7,0,3.3-0.1,4.9-0.3h0.3
				c1.8,0,2.9,1.1,2.9,2.5c0,0.4,0,0.8-0.3,1.2c-0.5,1.7-1.2,3.7-1.8,5.7c2.5,0.4,5,1.3,7.3,2.5c0.1-1.1,0.1-2.1,0.1-3.2
				c0-0.9,0-1.7-0.1-2.5l0,0h0V53z M196,59.1c-3.3,0.9-4.4,3.8-4.4,5.7c0,2.1,1.5,2.5,1.7,2.5c1.6,0,3-2.9,4.9-8.6
				C197.6,58.7,196.8,58.8,196,59.1z"/>
		</g>
	</g>
</g>
<g id="settings_1_">
</g>
</svg>
