<?xml version="1.0" encoding="utf-8"?>
<!-- Generator: Adobe Illustrator 24.0.2, SVG Export Plug-In . SVG Version: 6.00 Build 0)  -->
<svg version="1.1" id="exportSVG" xmlns="http://www.w3.org/2000/svg" xmlns:xlink="http://www.w3.org/1999/xlink" x="0px" y="0px"
	 viewBox="0 0 275.3 119" style="enable-background:new 0 0 275.3 119;" xml:space="preserve">
<style type="text/css">
	.st0{enable-background:new    ;}
	.st1{fill:#FFFFFF;}
</style>
<g id="objectsExport">
	<g>
		<g id="group4_8_">
			<g class="st0">
				<path class="st1" d="M76.3,53.4c0-0.7-0.5-1.1-1.1-1.1H57.4c-0.9,0-1.5-0.8-1.5-1.6s0.5-1.6,1.5-1.6H75c0-0.3,0-0.4,0-0.7
					c0-2.1,1.8-4,4-4s4,1.7,4,4c0,1.8-1.3,3.4-3.2,3.8c0,0.3,0,0.5,0,0.9c-1.5,11-8.1,17.3-19.8,19.3c-0.1,0-0.3,0-0.4,0
					c-1.2,0-1.8-0.9-1.8-1.8c0-0.7,0.4-1.3,1.3-1.5C69.7,67.4,75.1,62.4,76.3,53.4C76.3,53.5,76.3,53.4,76.3,53.4z M78.9,46.4
					c-1.2,0-2.1,0.9-2.1,2.1c0,1.2,0.9,2.1,2.1,2.1s2.1-0.9,2.1-2.1C81,47.4,80,46.4,78.9,46.4z"/>
				<path class="st1" d="M89.6,72.5c-1.2,0-1.8-0.8-1.8-1.7c0-0.8,0.5-1.6,1.6-1.6c14.9-0.4,16.2-10.3,16.2-11
					c0-0.5-0.4-0.9-0.9-0.9H87c-1.1,0-1.6-0.8-1.6-1.5c0-0.8,0.5-1.5,1.6-1.5h18.3c2.5,0,3.7,1.6,3.7,3.4
					C108.9,59,107.4,71.7,89.6,72.5L89.6,72.5z M88.9,51c-1.1,0-1.6-0.8-1.6-1.5c0-0.8,0.5-1.5,1.6-1.5h16.8c0.9,0,1.5,0.8,1.5,1.5
					s-0.5,1.5-1.5,1.5H88.9z"/>
				<path class="st1" d="M114.9,51.8L114.9,51.8c-0.9,0-1.5-0.8-1.5-1.6s0.5-1.5,1.5-1.5H129c2.5,0,3.7,1.3,3.7,3.2
					c0,1.2-1.1,5-3.6,8.7c2.6,2.5,5.5,5.7,7.1,8.2c0.3,0.3,0.3,0.7,0.3,0.9c0,0.9-0.9,1.8-1.8,1.8c-0.5,0-1.1-0.3-1.5-0.9
					c-1.3-2.2-3.7-5-6.1-7.7c-6.1,7.1-14,8.8-14.5,8.8c-1.1,0-1.7-0.8-1.7-1.6c0-0.7,0.4-1.3,1.3-1.6c13.9-3.4,17-15,17-16
					c0-0.5-0.4-0.9-0.9-0.9h-13.4V51.8z"/>
				<path class="st1" d="M155.2,59c-0.1,7-3.4,11.9-11.9,13.3c-0.1,0-0.3,0-0.4,0c-1.1,0-1.7-0.9-1.7-1.7c0-0.7,0.4-1.2,1.2-1.5
					c6.5-1.1,9.4-4.1,9.5-10.3h-11.1c-1.1,0-1.5-0.7-1.5-1.5c0-0.7,0.5-1.5,1.5-1.5h11.1v-4.6c-2.4,0.1-5.9,0.1-9,0.1
					c-1.1,0-1.6-0.7-1.6-1.3s0.5-1.5,1.5-1.5c9.2,0,14.9-0.4,18.6-1.2c0.1,0,0.3,0,0.4,0c0.9,0,1.5,0.8,1.5,1.5s-0.4,1.2-1.1,1.3
					c-2,0.4-4.5,0.7-7,0.8V56h9.6c0.9,0,1.5,0.8,1.5,1.5s-0.4,1.5-1.5,1.5H155.2L155.2,59L155.2,59z"/>
				<path class="st1" d="M174.1,62.9c-0.5,0-1.1-0.3-1.3-1.1c-0.5-2.1-1.1-3.7-1.8-5.3c-0.1-0.3-0.1-0.5-0.1-0.7
					c0-0.8,0.7-1.3,1.3-1.3c0.5,0,0.9,0.3,1.2,0.8c1.7,3,2.2,6.1,2.2,6.1C175.7,62.3,174.9,62.9,174.1,62.9z M189.7,55.9
					c-1.2,14.9-14.5,16.5-15.8,16.5c-1.1,0-1.5-0.7-1.5-1.5c0-0.7,0.4-1.3,1.2-1.3c9-1.1,12.8-6.7,13.3-14.1c0-0.8,0.7-1.2,1.3-1.2
					c0.8,0,1.5,0.5,1.5,1.5V55.9z M180.3,61.8c-0.5,0-1.2-0.3-1.3-1.1c-0.4-2.1-0.9-4-1.6-5.5c-0.1-0.3-0.1-0.4-0.1-0.7
					c0-0.8,0.8-1.3,1.5-1.3c1.2,0,1.6,0.9,3.2,6.6c0,0.1,0,0.3,0,0.4C181.9,61.3,181.1,61.8,180.3,61.8z"/>
				<path class="st1" d="M205.6,51.1c-0.8,0-1.3,0.3-1.7,0.9c-2.9,4.8-6.5,7.9-7.9,7.9c-0.9,0-1.6-0.8-1.6-1.7
					c0-0.5,0.3-0.9,0.8-1.3c2.5-1.5,4.6-4.2,6.1-6.6c0.8-1.3,1.7-2.1,3.8-2.1h10.8c1.8,0,3.4,1.1,3.4,3.2c0,0.3,0,0.5-0.1,0.9
					c-1.7,9.4-7.4,18.2-20.7,19.9c-0.1,0-0.3,0-0.3,0c-1.1,0-1.7-0.8-1.7-1.7c0-0.7,0.5-1.5,1.5-1.6c10.6-1.5,16.2-8.1,18-16.8
					c0-0.1,0-0.1,0-0.3c0-0.5-0.4-0.9-0.9-0.9L205.6,51.1L205.6,51.1z"/>
			</g>
		</g>
	</g>
</g>
<g id="settings">
</g>
</svg>
