<?xml version="1.0" encoding="utf-8"?>
<!-- Generator: Adobe Illustrator 24.0.2, SVG Export Plug-In . SVG Version: 6.00 Build 0)  -->
<svg version="1.1" id="exportSVG" xmlns="http://www.w3.org/2000/svg" xmlns:xlink="http://www.w3.org/1999/xlink" x="0px" y="0px"
	 viewBox="0 0 275.3 119" style="enable-background:new 0 0 275.3 119;" xml:space="preserve">
<style type="text/css">
	.st0{enable-background:new    ;}
	.st1{fill:#FFFFFF;}
</style>
<g id="objectsExport">
	<g>
		<g id="group4_8_">
			<g class="st0">
				<path class="st1" d="M45.7,50.7c0-0.7-0.5-1-1-1H26.9c-0.9,0-1.4-0.8-1.4-1.6c0-0.8,0.5-1.6,1.4-1.6h17.4c0-0.3,0-0.4,0-0.7
					c0-2.1,1.8-3.9,3.9-3.9s3.9,1.7,3.9,3.9c0,1.8-1.3,3.4-3.1,3.8c0,0.3,0,0.5,0,0.9c-1.4,10.9-8,17.2-19.7,19.2
					c-0.1,0-0.3,0-0.4,0c-1.2,0-1.8-0.9-1.8-1.8c0-0.7,0.4-1.3,1.3-1.4c10.5-1.7,15.9-6.7,17.2-15.6V50.7z M48.3,43.7
					c-1.2,0-2.1,0.9-2.1,2.1c0,1.2,0.9,2.1,2.1,2.1c1.2,0,2.1-0.9,2.1-2.1C50.4,44.8,49.3,43.7,48.3,43.7z"/>
				<path class="st1" d="M58.9,69.7c-1.2,0-1.8-0.8-1.8-1.7c0-0.8,0.5-1.6,1.6-1.6C73.5,66,74.8,56.2,74.8,55.5
					c0-0.5-0.4-0.9-0.9-0.9H56.3c-1,0-1.6-0.8-1.6-1.4c0-0.8,0.5-1.4,1.6-1.4h18.2c2.5,0,3.7,1.6,3.7,3.4
					C78.1,56.3,76.6,68.9,58.9,69.7L58.9,69.7z M58.2,48.3c-1,0-1.6-0.8-1.6-1.4c0-0.8,0.5-1.4,1.6-1.4h16.7c0.9,0,1.4,0.8,1.4,1.4
					c0,0.7-0.5,1.4-1.4,1.4H58.2z"/>
				<path class="st1" d="M84.1,49.1L84.1,49.1c-0.9,0-1.4-0.8-1.4-1.6c0-0.8,0.5-1.4,1.4-1.4h14c2.5,0,3.7,1.3,3.7,3.1
					c0,1.2-1,5-3.5,8.7c2.6,2.5,5.5,5.6,7.1,8.1c0.3,0.3,0.3,0.7,0.3,0.9c0,0.9-0.9,1.8-1.8,1.8c-0.5,0-1-0.3-1.4-0.9
					c-1.3-2.2-3.7-5-6-7.6c-6,7.1-13.9,8.8-14.4,8.8c-1,0-1.7-0.8-1.7-1.6c0-0.7,0.4-1.3,1.3-1.6c13.8-3.4,16.9-15,16.9-15.9
					c0-0.5-0.4-0.9-0.9-0.9H84.1z"/>
				<path class="st1" d="M124.1,56.3c-0.1,7-3.4,11.8-11.8,13.3c-0.1,0-0.3,0-0.4,0c-1,0-1.7-0.9-1.7-1.7c0-0.7,0.4-1.2,1.2-1.4
					c6.4-1,9.3-4.1,9.4-10.2h-11c-1,0-1.4-0.7-1.4-1.4c0-0.7,0.5-1.4,1.4-1.4h11v-4.6c-2.4,0.1-5.9,0.1-8.9,0.1
					c-1,0-1.6-0.7-1.6-1.3c0-0.7,0.5-1.4,1.4-1.4c9.2,0,14.8-0.4,18.5-1.2c0.1,0,0.3,0,0.4,0c0.9,0,1.4,0.8,1.4,1.4
					c0,0.7-0.4,1.2-1,1.3c-2,0.4-4.5,0.7-7,0.8v4.9h9.6c0.9,0,1.4,0.8,1.4,1.4c0,0.7-0.4,1.4-1.4,1.4h-9.6
					C124.1,56.2,124.1,56.3,124.1,56.3z"/>
				<path class="st1" d="M142.9,60.1c-0.5,0-1-0.3-1.3-1c-0.5-2.1-1-3.7-1.8-5.2c-0.1-0.3-0.1-0.5-0.1-0.7c0-0.8,0.7-1.3,1.3-1.3
					c0.5,0,0.9,0.3,1.2,0.8c1.7,3,2.2,6,2.2,6C144.4,59.6,143.7,60.1,142.9,60.1z M158.4,53.2c-1.2,14.8-14.4,16.4-15.7,16.4
					c-1,0-1.4-0.7-1.4-1.4c0-0.7,0.4-1.3,1.2-1.3c8.9-1,12.7-6.7,13.3-14c0-0.8,0.7-1.2,1.3-1.2c0.8,0,1.4,0.5,1.4,1.4V53.2z
					 M149,59.1c-0.5,0-1.2-0.3-1.3-1c-0.4-2.1-0.9-3.9-1.6-5.5c-0.1-0.3-0.1-0.4-0.1-0.7c0-0.8,0.8-1.3,1.4-1.3
					c1.2,0,1.6,0.9,3.1,6.6c0,0.1,0,0.3,0,0.4C150.6,58.6,149.8,59.1,149,59.1z"/>
				<path class="st1" d="M174.2,48.5c-0.8,0-1.3,0.3-1.7,0.9c-2.9,4.7-6.4,7.9-7.9,7.9c-0.9,0-1.6-0.8-1.6-1.7
					c0-0.5,0.3-0.9,0.8-1.3c2.5-1.4,4.6-4.2,6-6.6c0.8-1.3,1.7-2.1,3.8-2.1h10.8c1.8,0,3.4,1,3.4,3.1c0,0.3,0,0.5-0.1,0.9
					c-1.7,9.3-7.3,18.1-20.6,19.8c-0.1,0-0.3,0-0.3,0c-1,0-1.7-0.8-1.7-1.7c0-0.7,0.5-1.4,1.4-1.6c10.5-1.4,16.1-8,17.8-16.7
					c0-0.1,0-0.1,0-0.3c0-0.5-0.4-0.9-0.9-0.9L174.2,48.5L174.2,48.5z"/>
				<path class="st1" d="M211.2,66.4c1.7,0.3,4.5,0.5,6.6,0.9c0.7,0.1,0.9,0.7,0.9,1.3s-0.4,1.4-1.3,1.4c-0.1,0-0.3,0-0.4,0
					c-2.5-0.5-5.2-0.9-7-1.3c-0.7-0.1-0.9-0.7-0.9-1c0-0.5,0.3-0.9,0.8-1.2h-9.4c0.5,0.3,0.9,0.7,0.9,1.2c0,0.9-0.5,1.2-7.7,2.4
					c-0.1,0-0.1,0-0.3,0c-0.9,0-1.6-0.9-1.6-1.6c0-0.5,0.3-1,1-1.2c2.2-0.3,5.1-0.5,6.4-0.8h-2.9c-1.4,0-2.2-0.7-2.2-2.2v-8.4
					c0-1.4,0.7-2.2,2.2-2.2h3.7c-0.3-0.3-0.5-0.7-0.5-1.2c0-0.5,0.3-1,0.9-1.2c3.1-0.4,5.2-2.1,6.3-4.6h-2.1c-0.8,0.9-2,2-2.6,2
					s-1.4-0.7-1.4-1.4c0-0.4,0.1-0.7,0.7-0.9c0.9-0.5,1.7-1.4,2.2-2.8c0.3-0.5,0.8-0.7,1.3-0.7c0.7,0,1.3,0.4,1.3,1
					c0,0.1,0,0.3,0,0.3h9.4c1.7,0,2.8,0.7,2.8,1.8c0,0.4-0.1,0.9-0.5,1.4c-1.4,2.4-1.8,2.9-2.8,2.9c-0.8,0-1.4-0.7-1.4-1.2
					c0-0.1,0-0.3,0.1-0.3c0.5-0.8,0.9-1.3,1.3-2h-5c0.9,2.4,3.8,4.7,7.7,5.4c0.7,0.1,0.9,0.5,0.9,1c0,0.8-0.5,1.6-1.3,1.6
					c0,0-0.1,0-0.3,0c-0.4,0-0.8-0.3-1.2-0.4c0.3,0.4,0.4,0.8,0.4,1.4v8.4c0,1.4-0.7,2.2-2.1,2.2h-3V66.4z M193,53.8
					c-0.8,0-1.3-0.8-1.3-1.6c0-0.5,0.3-0.9,0.8-1.2c2.1-0.8,4.1-1.6,6-2.9c0.1-0.1,0.3-0.1,0.5-0.1c0.7,0,1.2,0.7,1.2,1.3
					c0,0.4-0.3,0.7-0.7,1C196.5,52.7,193.4,53.8,193,53.8z M198.4,47.4c-0.1,0-0.4,0-0.5-0.1c-1.7-0.7-3.1-1-4.9-1.6
					c-0.7-0.1-0.9-0.7-0.9-1.2c0-0.7,0.5-1.4,1.4-1.4c0.1,0,0.4,0,0.5,0.1c5.5,1.7,5.6,2.2,5.6,2.9
					C199.7,46.8,199.2,47.4,198.4,47.4z M213.6,56.5c0-0.3-0.1-0.5-0.4-0.5h-15.9c-0.3,0-0.4,0.1-0.4,0.5v0.9h16.8L213.6,56.5
					L213.6,56.5z M213.6,59.3h-16.8v1.4h16.8V59.3z M213.6,62.8h-16.8v1.2c0,0.3,0.1,0.4,0.4,0.4h15.9c0.3,0,0.4-0.1,0.4-0.4
					L213.6,62.8L213.6,62.8z M213.9,53.8c-2.4-1-3.9-2.6-5.4-4.6c-1.2,2.1-3.1,3.7-6.7,4.6H213.9z"/>
				<path class="st1" d="M226.1,54.6c-0.9-0.5-2.4-1.3-3.1-1.7c-0.7-0.3-0.9-0.8-0.9-1.4c0-0.8,0.7-1.7,1.4-1.7c0.3,0,0.5,0,0.8,0.3
					c0.9,0.5,2.6,1.6,3.4,2.1c0.4,0.3,0.7,0.7,0.7,1.2c0,0.8-0.7,1.6-1.4,1.6C226.4,54.9,226.3,54.8,226.1,54.6z M223.7,69.4
					c-0.8,0-1.7-0.7-1.7-1.6c0-0.3,0-0.5,0.1-0.8c1.2-2.8,2.5-6,3.1-8.3c0.3-0.8,0.8-1.2,1.4-1.2c0.7,0,1.4,0.5,1.4,1.4
					c0,1-2.2,7.6-3,9.3C224.9,69.2,224.2,69.4,223.7,69.4z M228.7,46.9c0,0.8-0.5,1.6-1.3,1.6c-0.3,0-0.5-0.1-0.8-0.3
					c-1-0.7-2.4-1.6-3.1-2.1c-0.5-0.3-0.8-0.8-0.8-1.3c0-0.8,0.7-1.6,1.4-1.6c0.3,0,0.7,0.1,0.9,0.4C228.5,45.8,228.7,46,228.7,46.9
					z M242.5,60.8v5.9c0,2.4-0.4,3.4-2.8,3.4c-3.1,0-3.8-0.5-3.8-1.7c0-0.7,0.4-1.4,1.2-1.4c0,0,0.1,0,0.3,0c1,0.1,1.6,0.3,2,0.3
					c0.5,0,0.5-0.3,0.5-0.7v-5.8h-3.7c-1.4,0-2.2-0.7-2.2-2.2v-8c0-1.4,0.7-2.1,2.2-2.1h2.8c0.3-0.5,0.5-1.3,0.8-1.8h-6.8
					c-0.3,0-0.5,0.1-0.5,0.4v7.3c0,5.1-0.7,10.8-2.1,14.3c-0.3,0.7-0.8,0.9-1.3,0.9c-0.8,0-1.7-0.7-1.7-1.6c0-0.1,0-0.4,0.1-0.5
					c1.4-3.3,2.1-8.5,2.1-13.1V46c0-1.4,0.7-2.1,2.2-2.1h15.9c0.9,0,1.3,0.7,1.3,1.3c0,0.7-0.5,1.3-1.4,1.3h-4.9
					c-0.3,0.4-0.5,1.2-0.8,1.8h3.9c1.4,0,2.2,0.7,2.2,2.1v8c0,1.4-0.7,2.2-2.2,2.2h-3.3V60.8z M233.8,69.2c-0.8,0-1.6-0.7-1.6-1.4
					c0-0.3,0-0.4,0.1-0.7c0.9-1.7,1.7-3.8,2.1-5.1c0.1-0.5,0.5-0.8,1-0.8c0.7,0,1.4,0.5,1.4,1.3c0,0.3-0.9,3.7-2.1,6
					C234.6,69.1,234.2,69.2,233.8,69.2z M245.3,51.5c0-0.3-0.1-0.5-0.4-0.5h-7.9c-0.3,0-0.5,0.1-0.5,0.5v2h8.8V51.5z M245.3,55.8
					h-8.8v2.1c0,0.3,0.1,0.4,0.5,0.4h7.9c0.3,0,0.4-0.1,0.4-0.4V55.8z M247.3,69.3c-0.5,0-0.9-0.3-1-0.8c-0.5-1.6-1.3-3.9-2.1-5.2
					c-0.1-0.1-0.1-0.3-0.1-0.5c0-0.8,0.8-1.4,1.6-1.4c0.4,0,0.7,0.1,0.9,0.5c0.8,1.3,2.5,5.1,2.5,5.9
					C248.9,68.7,248.1,69.3,247.3,69.3z"/>
			</g>
		</g>
	</g>
</g>
<g id="settings">
</g>
</svg>
