<?xml version="1.0" encoding="utf-8"?>
<!-- Generator: Adobe Illustrator 24.0.2, SVG Export Plug-In . SVG Version: 6.00 Build 0)  -->
<svg version="1.1" id="exportSVG" xmlns="http://www.w3.org/2000/svg" xmlns:xlink="http://www.w3.org/1999/xlink" x="0px" y="0px"
	 viewBox="0 0 275.3 119" style="enable-background:new 0 0 275.3 119;" xml:space="preserve">
<style type="text/css">
	.st0{enable-background:new    ;}
	.st1{fill:#FFFFFF;}
</style>
<g id="objectsExport">
	<g>
		<g id="group6_8_">
			<g class="st0">
				<path class="st1" d="M128,68c1.8,0.8,6.8-0.4,7.5,2.1c0,0.9-0.7,1.7-1.7,1.4c-2.5-1-10.1-0.3-7.2-3.5h-9.4
					c2.1,2.4,1.2,2.1-7,3.5c-1,0.3-1.8-0.8-1.8-1.6c0.7-2.4,6.4-1.2,7.6-2c-1.7-0.1-5.4,0.7-5.1-2.2v-8.4c-0.3-3.1,4.1-2,5.9-2.2
					c-2.6-2.9,6.2-2.5,6.7-6.8h-2.1c-1.3,1.7-3.5,3-4.1,0.5c0.4-1.4,2.4-1.8,2.9-3.8c0.5-1.2,3-0.8,2.6,0.7c2,0.5,12.2-1.6,12.2,1.8
					c-0.1,1.8-2.6,4.7-3.1,4.2c-2.6-0.3-0.8-2.4-0.1-3.5h-4.9c0.9,2.4,3.8,4.7,7.7,5.4c2.4,0.9-0.1,3.5-1.8,2.2
					c0.7,0.7,0.3,8.8,0.4,9.7C133.2,68.7,129.7,68,128,68z M109.9,55.4c-1.3,0-2-2.1-0.5-2.6c2.4,0,6.7-5,7.7-1.7
					C115.8,53.7,109.5,55.4,109.9,55.4z M115.2,48.9c-2-0.9-5.5-0.8-6.3-2.9c0-0.9,0.9-1.7,2-1.3c5.5,1.7,5.6,2.2,5.6,2.9
					C116.4,48.3,116,48.9,115.2,48.9z M130.3,58c0.3-1-15.9-0.1-16.4-0.5c-0.7-0.1-0.4,1-0.4,1.4h16.8V58z M130.3,60.9h-16.8v1.4
					h16.8C130.3,62.4,130.3,60.9,130.3,60.9z M130.3,64.2h-16.8c0.1,0.4-0.3,1.7,0.4,1.6h15.9C130.6,65.9,130.2,64.6,130.3,64.2z
					 M130.6,55.3c-2.4-1-3.9-2.6-5.4-4.6c-1.2,2.1-3.1,3.7-6.7,4.6H130.6z"/>
				<path class="st1" d="M142.8,56.2c-2-0.8-6.4-3.4-2.6-4.9c1.4,0.5,4.3,1.8,4.7,3.4C144.9,55.9,143.7,56.9,142.8,56.2z M140.4,71
					c-4.3-0.9,1.8-8.4,1.6-10.6c0.5-1.7,2.8-1.4,2.9,0.3C144.4,62.2,143.1,70.5,140.4,71z M145.4,48.3c-0.1,3.5-5.8-0.7-6-2.1
					c0-1.2,1.3-2.1,2.4-1.2C145.3,47.4,145.4,47.5,145.4,48.3z M159.3,62.4v5.9c1.3,5.9-10.5,3.1-5.5,0.3c1.3,0,2.8,0.9,2.8-0.4
					v-5.8c-1.8-0.3-6,0.9-5.8-2.2v-8c-0.3-2.8,3.1-2.1,4.9-2.1c0.3-0.5,0.5-1.3,0.8-1.8c-0.3,0.1-7.6-0.5-7.2,0.4
					c0.1,6.6,0.1,16.4-2.1,21.8c-0.5,1.6-3,0.9-3-0.7c1.3-3.7,2.4-8.7,2.2-13.6c0.7-2-1.7-11,2.2-10.5c1,0.5,18-1.4,17.2,1.3
					c0.3,2.4-5,1-6.2,1.3c-0.3,0.4-0.5,1.2-0.8,1.8c1.8,0.3,6.4-1,6,2.1v8C165,63.2,161,62.2,159.3,62.4z M150.7,70.8
					c-1,0-2-1.2-1.4-2.1c1.4-1.8,1.2-5.2,3-5.8c3.1,0.7,0.7,3.8-0.7,7.3C151.3,70.6,150.9,70.8,150.7,70.8z M162.1,52.9
					c0.5-0.9-8.1-0.3-8.4-0.5c-0.8-0.1-0.3,2-0.5,2.4h8.8v-1.8H162.1z M162.1,57.4h-8.8c0.1,0.4-0.4,2.6,0.5,2.5h7.9
					C162.5,60,162,57.8,162.1,57.4z M164.1,70.8c-2-0.7-2-4.6-3.1-6c-0.5-0.9,0.5-2,1.4-2c1.7,0.5,3.1,5.5,3.4,6.4
					C165.8,70.2,164.8,70.8,164.1,70.8z"/>
			</g>
		</g>
	</g>
</g>
<g id="settings">
</g>
</svg>
