<?xml version="1.0" encoding="utf-8"?>
<!-- Generator: Adobe Illustrator 24.0.2, SVG Export Plug-In . SVG Version: 6.00 Build 0)  -->
<svg version="1.1" id="exportSVG" xmlns="http://www.w3.org/2000/svg" xmlns:xlink="http://www.w3.org/1999/xlink" x="0px" y="0px"
	 viewBox="0 0 275.3 119" style="enable-background:new 0 0 275.3 119;" xml:space="preserve">
<style type="text/css">
	.st0{enable-background:new    ;}
	.st1{fill:#FFFFFF;}
</style>
<g>
	<g id="objectsExport_4_">
		<g id="group0_3_">
			<g class="st0">
				<path class="st1" d="M10.5,86.1c-2.1-1.7-3.3-4.5-3.3-7.4s1.2-5.7,3.3-7.4c0.1-0.1,0.3-0.1,0.4-0.1c0.4,0,0.8,0.4,0.8,0.8
					c0,0.1-0.1,0.4-0.3,0.5c-1.8,1.6-2.8,3.8-2.8,6.3s0.9,4.8,2.8,6.3c0.1,0.1,0.3,0.4,0.3,0.5c0,0.4-0.4,0.8-0.7,0.8
					C10.7,86.4,10.6,86.2,10.5,86.1z"/>
				<path class="st1" d="M14.3,72.5c0.5,0,1.2,0.1,1.8,0.1c0.9,0,2-0.1,2.9-0.3c0.1,0,0.1,0,0.3,0c0.5,0,0.8,0.4,0.8,0.8
					S19.8,74,19.4,74s-0.7,0.1-1.1,0.3c-2,1.1-3.2,4-3.2,6.2c0,2.6,1.6,4,3.4,4c2.6,0,4.8-2.6,4.8-6.3c0-1.7-0.5-3.3-1.3-4.4
					c0-0.2,0-0.5,0-0.6c0-0.4,0.4-0.8,0.9-0.8c0.3,0,0.7,0.1,0.8,0.5c0.7,1.5,2,3.8,3.8,5.4c0.3,0.3,0.4,0.4,0.4,0.7
					c0,0.5-0.4,0.9-0.9,0.9c-0.3,0-0.4-0.1-0.7-0.4c-0.4-0.4-1.1-1.3-1.3-1.7c0-0.1-0.1-0.1-0.1-0.1s0,0,0,0.1v0.1
					c0,0.3,0,0.5,0,0.8c0,5.3-3.4,7.3-6.2,7.3c-2.6,0-5-1.8-5-5.4c0-2.4,1.2-4.9,2.5-6.3c0,0,0,0,0-0.1c0,0,0,0-0.1,0
					c-0.3,0-0.7,0-0.9,0c-1.1,0-1.7-0.1-1.7-0.8C13.4,72.9,13.6,72.5,14.3,72.5L14.3,72.5z M25.4,74.8c-0.3,0-0.4-0.1-0.5-0.4
					c-0.4-0.7-1.1-1.6-1.5-2.1c-0.1-0.1-0.1-0.3-0.1-0.3c0-0.3,0.3-0.5,0.7-0.5c0.1,0,0.4,0.1,0.5,0.3c1.5,1.7,1.6,2.2,1.6,2.5
					S25.6,74.8,25.4,74.8z M27.2,74.1c-0.1,0-0.4-0.1-0.5-0.3c-0.4-0.8-0.9-1.6-1.3-2.1c-0.1-0.1-0.1-0.3-0.1-0.4
					c0-0.3,0.3-0.5,0.7-0.5c0.1,0,0.4,0.1,0.5,0.3c0.5,0.7,1.1,1.3,1.5,2.1c0,0.1,0,0.1,0,0.3C27.9,73.8,27.6,74.1,27.2,74.1z"/>
				<path class="st1" d="M33.3,82.5c0-1.2,0.3-2.6,0.4-3.2v-0.1c0-0.5-0.3-0.7-0.5-0.7c-0.1,0-0.4,0.1-0.7,0.3
					c-1.5,0.8-1.7,1.7-3,6.1c-0.1,0.5-0.5,0.8-0.9,0.8s-0.8-0.3-0.8-0.8c0-0.4,1.5-5.3,5.1-12.9c0.1-0.4,0.5-0.5,0.8-0.5
					c0.4,0,0.9,0.3,0.9,0.8c0,0.1,0,0.3-0.1,0.5C33,75.4,32,77.7,32,77.7s0,0,0.3-0.3c0.4-0.3,0.8-0.4,1.2-0.4
					c0.9,0,1.7,0.7,1.7,1.8c0,0.1,0,0.1,0,0.3c0,0.8-0.4,2.2-0.4,3.2c0,1.3,0.5,1.7,1.5,1.7c2.5,0,4.5-2.8,4.8-5.5
					c0-0.5,0.5-0.8,0.9-0.8c0.5,0,0.9,0.4,0.9,0.9v0.1c-0.5,4-3.6,7-6.9,7c-1.6,0-2.9-0.8-2.9-3v-0.1L33.3,82.5L33.3,82.5z"/>
				<path class="st1" d="M45.4,78.9c0-0.9,0.8-1.7,1.7-1.7s1.7,0.8,1.7,1.7c0,0.9-0.8,1.7-1.7,1.7S45.4,79.8,45.4,78.9z"/>
				<path class="st1" d="M59.3,76.2c-0.7,0-1.5,0-2.4,0.1c-0.8,3-2,6.2-3.4,8.8c-0.3,0.4-0.5,0.5-0.9,0.5s-0.8-0.3-0.8-0.8
					c0-0.1,0-0.4,0.1-0.5c1.5-2.4,2.6-5.1,3.3-8.1c-1.6,0.1-2.4,0.1-2.4,0.1c-0.5,0-0.8-0.4-0.8-0.8s0.3-0.8,0.7-0.8
					c0.8,0,1.8,0,2.8-0.1c0.1-0.9,0.3-1.7,0.3-2.6c0-0.5,0.4-0.7,0.8-0.7s0.8,0.3,0.8,0.8c0,0.1,0,1.1-0.3,2.5
					c1.3-0.1,2.2-0.1,2.2-0.1c2.1,0,3,1.1,3,3.8c0,6.6-2.6,7.3-4.1,7.3c-0.7,0-1.3-0.1-2.1-0.4c-0.4-0.1-0.7-0.5-0.7-0.8
					c0-0.4,0.4-0.9,0.8-0.9c0.1,0,0.3,0,0.4,0c0.5,0.1,1.1,0.4,1.6,0.4c0.7,0,1.2-0.3,1.6-0.9c0.8-1.5,0.8-4.2,0.8-4.6
					C61,76.5,60.5,76.2,59.3,76.2L59.3,76.2z M65,78.9c-0.5-1.7-1.6-3.3-2.8-4.4c-0.3-0.1-0.3-0.4-0.3-0.7c0-0.4,0.4-0.8,0.8-0.8
					c0.3,0,0.5,0.1,0.8,0.3c1.8,1.7,3.3,4.2,3.3,5.1c0,0.7-0.4,0.9-0.9,0.9C65.5,79.5,65.1,79.4,65,78.9z"/>
				<path class="st1" d="M72.2,82.5c0-1.2,0.3-2.6,0.4-3.2v-0.1c0-0.5-0.3-0.7-0.5-0.7c-0.1,0-0.4,0.1-0.7,0.3
					c-1.5,0.9-1.7,1.8-2.9,6.2c-0.1,0.5-0.5,0.8-0.9,0.8s-0.8-0.3-0.8-0.8c0-0.4,1.5-5.3,5.1-12.9c0.1-0.4,0.5-0.5,0.8-0.5
					c0.4,0,0.9,0.3,0.9,0.8c0,0.1,0,0.3-0.1,0.5C72,75.5,71,77.8,71,77.8s0,0,0.3-0.3c0.4-0.3,0.8-0.4,1.2-0.4
					c0.9,0,1.7,0.7,1.7,1.8c0,0.1,0,0.1,0,0.3c0,0.8-0.4,2.2-0.4,3.2c0,1.3,0.5,1.7,1.5,1.7c2.5,0,4.5-2.8,4.8-5.5
					c0-0.5,0.5-0.8,0.9-0.8c0.5,0,0.9,0.4,0.9,0.9v0.1c-0.5,4-3.6,7-6.9,7c-1.6,0-2.9-0.8-2.9-3L72.2,82.5L72.2,82.5z"/>
				<path class="st1" d="M84.4,78.9c0-0.9,0.8-1.7,1.7-1.7c0.9,0,1.7,0.8,1.7,1.7c0,0.9-0.8,1.7-1.7,1.7
					C85.2,80.6,84.4,79.8,84.4,78.9z"/>
				<path class="st1" d="M104.1,84.7c-2.5-2.8-4.9-6.1-7.1-8.6c-0.1-0.3-0.4-0.4-0.5-0.4s-0.4,0.1-0.5,0.4c-0.9,1.6-2.1,3.8-3.3,5.4
					C92.4,81.9,92,82,91.8,82c-0.5,0-0.9-0.4-0.9-0.9c0-0.3,0.1-0.4,0.3-0.7c1.3-1.6,2.4-3.7,3.4-5.4c0.5-0.8,1.2-1.2,1.8-1.2
					c0.7,0,1.3,0.3,1.8,0.9c2.4,2.6,4.9,5.8,7.3,8.3c0.3,0.3,0.4,0.5,0.4,0.8c0,0.5-0.5,0.9-0.9,0.9
					C104.6,85.1,104.2,84.9,104.1,84.7z M102.3,76.9c-1.3,0-2.4-1.1-2.4-2.4s1.1-2.4,2.4-2.4s2.4,1.1,2.4,2.4S103.7,76.9,102.3,76.9
					z M102.3,73.2c-0.7,0-1.3,0.5-1.3,1.3c0,0.7,0.5,1.3,1.3,1.3c0.7,0,1.3-0.5,1.3-1.3C103.7,73.7,103,73.2,102.3,73.2z"/>
				<path class="st1" d="M108.5,80.7c-0.3,0-0.7-0.1-0.7-0.5c-0.3-1.2-0.5-2-1.1-2.9c0-0.1-0.1-0.3-0.1-0.4c0-0.4,0.4-0.7,0.8-0.7
					c0.3,0,0.5,0.1,0.7,0.4c0.9,1.7,1.2,3.3,1.2,3.3C109.5,80.4,108.9,80.7,108.5,80.7z M117,76.9c-0.7,8.2-7.9,9-8.6,9
					c-0.5,0-0.8-0.4-0.8-0.8s0.3-0.7,0.7-0.8c4.9-0.7,7-3.7,7.3-7.7c0-0.4,0.4-0.7,0.8-0.7C116.6,76.1,117,76.3,117,76.9L117,76.9z
					 M112,80.2c-0.3,0-0.7-0.1-0.7-0.5c-0.3-1.2-0.5-2.1-0.9-3c0-0.1-0.1-0.3-0.1-0.4c0-0.4,0.4-0.7,0.8-0.7c0.7,0,0.9,0.5,1.7,3.6
					v0.1C112.8,79.9,112.4,80.2,112,80.2z"/>
				<path class="st1" d="M119.8,72.4c0-0.5,0.4-0.8,0.9-0.8c0.4,0,0.9,0.3,0.9,0.8v3.4c2.4,0.5,6.6,1.8,9.2,3
					c0.4,0.1,0.5,0.5,0.5,0.8c0,0.5-0.4,0.9-0.9,0.9c-0.1,0-0.3,0-0.4-0.1c-2.2-1.2-6.3-2.5-8.4-3v7.5c0,0.5-0.4,0.8-0.9,0.8
					c-0.4,0-0.9-0.3-0.9-0.8C119.8,84.9,119.8,72.4,119.8,72.4z"/>
				<path class="st1" d="M135.6,77.3c0.4,0,0.9,0.3,0.9,0.8c0,0.7-1.1,4.1-2.5,5.9c-0.3,0.3-0.5,0.4-0.8,0.4c-0.5,0-0.9-0.4-0.9-0.8
					c0-0.1,0-0.4,0.3-0.5c1.2-1.5,2-3.6,2.4-5.1C134.9,77.4,135.2,77.3,135.6,77.3z M139,75.9h-5.7c-0.5,0-0.8-0.4-0.8-0.8
					s0.3-0.8,0.8-0.8h5.7v-1.8c0-0.5,0.4-0.8,0.9-0.8c0.4,0,0.8,0.3,0.8,0.8v1.8h3.4c-0.1,0-0.3-0.1-0.4-0.4
					c-0.3-0.7-0.8-1.6-1.2-2.2c0-0.1-0.1-0.1-0.1-0.3c0-0.3,0.3-0.5,0.7-0.5c0.1,0,0.4,0.1,0.5,0.3c0.9,1.6,1.3,2.2,1.3,2.5
					s-0.3,0.5-0.4,0.5h1.3c0.5,0,0.8,0.4,0.8,0.8s-0.3,0.8-0.8,0.8h-5.1v7.4c0,1.7-0.9,2.5-2.5,2.5c-0.5,0-1.2-0.1-1.8-0.3
					c-0.5-0.1-0.8-0.5-0.8-0.9s0.3-0.9,0.8-0.9c0.1,0,0.1,0,0.3,0c0.5,0.1,0.9,0.3,1.3,0.3c0.7,0,0.9-0.4,0.9-1.1v-6.9H139z
					 M145.9,84.3c-0.4,0-0.7-0.3-0.8-0.7c-0.5-2.4-1.2-3.8-2-5.1c-0.1-0.1-0.1-0.3-0.1-0.4c0-0.4,0.4-0.8,0.8-0.8
					c0.3,0,0.5,0.1,0.7,0.4c1.6,2.5,2.4,5.3,2.4,5.7C146.8,84,146.3,84.3,145.9,84.3z M146.6,74.2c-0.3,0-0.4-0.1-0.5-0.4
					c-0.3-0.8-0.8-1.6-1.2-2.2c0-0.1-0.1-0.3-0.1-0.3c0-0.3,0.3-0.5,0.7-0.5c0.3,0,0.4,0.1,0.5,0.4c1.1,1.7,1.3,2.2,1.3,2.5
					C147.2,74.1,147,74.2,146.6,74.2z"/>
				<path class="st1" d="M149.1,72.4c0-0.5,0.4-0.8,0.9-0.8c0.4,0,0.9,0.3,0.9,0.8v3.4c2.4,0.5,6.6,1.8,9.2,3
					c0.4,0.1,0.5,0.5,0.5,0.8c0,0.5-0.4,0.9-0.9,0.9c-0.1,0-0.3,0-0.4-0.1c-2.2-1.2-6.3-2.5-8.4-3v7.5c0,0.5-0.4,0.8-0.9,0.8
					c-0.4,0-0.9-0.3-0.9-0.8L149.1,72.4L149.1,72.4z"/>
				<path class="st1" d="M164.1,73c0-0.5,0.4-0.8,0.9-0.8s0.9,0.3,0.9,0.8v4.8c0,3.2-1.1,6.2-4,7.8c-0.3,0.1-0.4,0.1-0.5,0.1
					c-0.5,0-0.8-0.4-0.8-0.8c0-0.3,0.1-0.5,0.4-0.8c2.2-1.3,3.2-3.3,3.2-6.5L164.1,73L164.1,73z M167.9,72.9c0-0.5,0.4-0.8,0.9-0.8
					c0.4,0,0.9,0.3,0.9,0.8v10c0,0.3,0.1,0.4,0.4,0.4c0,0,2.8-0.7,3.6-4.5c0.1-0.5,0.5-0.8,0.8-0.8c0.4,0,0.9,0.4,0.9,0.9
					c0,0.1,0,0.1,0,0.3c-1.2,4.6-4.8,5.9-5.8,5.9c-0.9,0-1.7-0.5-1.7-1.8C167.9,83.3,167.9,72.9,167.9,72.9z"/>
				<path class="st1" d="M177.4,85.7c-0.1,0.1-0.3,0.1-0.4,0.1c-0.4,0-0.7-0.3-0.7-0.7c0-0.1,0-0.3,0.1-0.4l13.1-13.1
					c0.1-0.1,0.3-0.3,0.4-0.3c0.3,0,0.7,0.3,0.7,0.7c0,0.1,0,0.3-0.3,0.4L177.4,85.7z"/>
				<path class="st1" d="M199.6,76.2c-0.7,0-1.5,0-2.4,0.1c-0.8,3-2,6.2-3.4,8.8c-0.3,0.4-0.5,0.5-0.9,0.5s-0.8-0.3-0.8-0.8
					c0-0.1,0-0.4,0.1-0.5c1.5-2.4,2.6-5.1,3.3-8.1c-1.6,0.1-2.4,0.1-2.4,0.1c-0.5,0-0.8-0.4-0.8-0.8s0.3-0.8,0.7-0.8
					c0.8,0,1.8,0,2.8-0.1c0.1-0.9,0.3-1.7,0.3-2.6c0-0.5,0.4-0.7,0.8-0.7c0.4,0,0.8,0.3,0.8,0.8c0,0.1,0,1.1-0.3,2.5
					c1.3-0.1,2.2-0.1,2.2-0.1c2.1,0,3,1.1,3,3.8c0,6.6-2.6,7.3-4.1,7.3c-0.7,0-1.3-0.1-2.1-0.4c-0.4-0.1-0.7-0.5-0.7-0.8
					c0-0.4,0.4-0.9,0.8-0.9c0.1,0,0.3,0,0.4,0c0.5,0.1,1.1,0.4,1.6,0.4c0.7,0,1.2-0.3,1.6-0.9c0.8-1.5,0.8-4.2,0.8-4.6
					C201.3,76.5,200.8,76.2,199.6,76.2L199.6,76.2z M205.4,78.9c-0.5-1.7-1.6-3.3-2.8-4.4c-0.3-0.1-0.3-0.4-0.3-0.7
					c0-0.4,0.4-0.8,0.8-0.8c0.3,0,0.5,0.1,0.8,0.3c1.8,1.7,3.3,4.2,3.3,5.1c0,0.7-0.4,0.9-0.9,0.9C205.8,79.5,205.6,79.4,205.4,78.9
					z"/>
				<path class="st1" d="M219.3,75.4c0-0.5,0.4-0.8,0.8-0.8c0.4,0,0.9,0.3,0.9,0.9c0,0.3,0,0.5,0,0.8c0,0.9,0,2-0.3,3.2
					c0.7,0.5,1.3,1.1,1.8,1.6c0.1,0.3,0.3,0.4,0.3,0.7c0,0.5-0.4,0.9-0.9,0.9c-0.3,0-0.4-0.1-0.7-0.3c-0.3-0.4-0.7-0.8-1.1-1.1
					c-1.6,4.4-5.3,4.6-5.3,4.6c-0.5,0-0.8-0.4-0.8-0.8s0.3-0.7,0.7-0.8c2.4-0.4,3.6-2.1,4.1-4.1c-1.2-0.8-2.6-1.5-4.1-1.7
					c-1.3,4.1-2.4,6.3-4.4,6.3c-1.3,0-2.4-1.3-2.4-3.2c0-2.1,1.6-4.8,5.5-4.8c0.9-2.9,0.9-2.9,0.9-3c0-0.3-0.1-0.4-0.4-0.4h0.1
					c-0.8,0-1.6,0.1-2.5,0.1c-0.8,0-1.7,0-1.7-0.9c0-0.4,0.3-0.8,0.8-0.8h0.1c0.4,0,0.8,0,1.2,0c0.9,0,1.8,0,2.6-0.1h0.1
					c1.1,0,1.6,0.5,1.6,1.3c0,0.3,0,0.4-0.1,0.7c-0.3,0.9-0.7,2-0.9,3.2c1.3,0.3,2.8,0.7,4,1.3c0-0.5,0.1-1.2,0.1-1.7
					C219.3,76.3,219.3,75.9,219.3,75.4L219.3,75.4z M211.9,78.7c-1.8,0.5-2.4,2.1-2.4,3c0,1.2,0.8,1.5,0.9,1.5
					c0.8,0,1.6-1.6,2.6-4.6C212.7,78.6,212.3,78.6,211.9,78.7z"/>
				<path class="st1" d="M225.4,78.9c0-0.9,0.8-1.7,1.7-1.7s1.7,0.8,1.7,1.7c0,0.9-0.8,1.7-1.7,1.7S225.4,79.8,225.4,78.9z"/>
				<path class="st1" d="M236.8,83.9c-0.7,0.8-1.6,1.2-2.4,1.2c-2,0-2.8-2.2-2.8-3.8s0.7-3.4,2.4-5c-0.4-1.6-0.5-3-0.5-3.2
					c0-0.5,0.4-0.8,0.8-0.8c0.4,0,0.7,0.3,0.8,0.8c0.1,0.8,0.1,1.6,0.3,2.2c1.1-0.7,2.4-1.1,3.7-1.2c0.1-0.5,0.1-1.2,0.1-1.7
					s0.4-0.8,0.8-0.8c0.4,0,0.8,0.3,0.8,0.8c0,0.1-0.1,1.1-0.3,1.7c3.3,0.3,5.4,2.4,5.4,5.7c0,1.1-0.3,2.1-0.7,2.9
					c0.5,0.5,1.2,1.2,1.2,1.7s-0.4,0.9-0.8,0.9c-0.3,0-0.4-0.1-0.5-0.4c-0.1-0.4-0.4-0.7-0.7-0.9c-0.8,0.9-2.1,1.6-3.4,1.6
					c-1.5,0-2.9-0.9-2.9-2.4c0-1.3,1.2-2.4,3-2.4c0.9,0,2,0.3,2.8,0.8c0.3-0.7,0.4-1.3,0.4-2c0-2.1-1.3-4-4.1-4.2
					c-0.5,2.2-1.3,4.6-2.5,6.7c0.1,0.1,0.4,0.4,0.4,0.8c0,0.5-0.4,0.9-0.8,0.9c-0.1,0-0.4,0-0.4-0.3c0,0,0,0-0.1-0.1V83.9z
					 M236.2,82.3c-0.8-1.3-1.3-2.9-1.7-4.5c-0.9,1.2-1.5,2.4-1.5,3.4c0,0.9,0.5,2.4,1.5,2.4c0.4,0,0.8-0.3,1.2-0.7L236.2,82.3z
					 M235.7,76.6c0.3,1.5,0.8,2.9,1.5,4.1c0.8-1.6,1.5-3.4,1.8-5.3C237.8,75.7,236.6,76.1,235.7,76.6z M241.6,82.3
					c-1.1,0-1.7,0.5-1.7,1.1s0.7,0.9,1.5,0.9c0.9,0,1.7-0.5,2.4-1.2C242.9,82.5,242.3,82.3,241.6,82.3z"/>
				<path class="st1" d="M255.9,74.6c0,1.7-1.1,6.3-2.8,8.8c-0.5,0.8-1.3,1.3-2.1,1.3c-1.3,0-3.4-1.7-3.4-5c0-3.7,2.8-7.3,7.5-7.3
					c4.5,0,7.1,3,7.1,6.3c0,5.5-5,6.7-6.7,6.7c-0.7,0-0.9-0.4-0.9-0.9c0-0.4,0.3-0.8,0.8-0.8c4.6-0.3,5.1-3.6,5.1-5c0-3-2.2-4.8-5-5
					C255.7,74.1,255.9,74.4,255.9,74.6z M249.3,79.8c0,1.8,0.9,3.3,1.7,3.3c1.6,0,3.2-5.9,3.2-8.4c0-0.3,0.1-0.5,0.4-0.7
					C251.4,74.2,249.3,76.7,249.3,79.8z"/>
				<path class="st1" d="M264.3,86.4c-0.4,0-0.7-0.4-0.7-0.8c0-0.1,0.1-0.4,0.3-0.5c1.8-1.6,2.8-3.8,2.8-6.3s-0.9-4.6-2.8-6.3
					c-0.1-0.1-0.3-0.4-0.3-0.5c0-0.4,0.4-0.8,0.8-0.8c0.1,0,0.3,0,0.4,0.1c2.1,1.8,3.3,4.5,3.3,7.4s-1.2,5.7-3.3,7.4
					C264.6,86.2,264.4,86.4,264.3,86.4z"/>
			</g>
		</g>
	</g>
	<g id="objectsExport_3_">
		<g id="group0_2_">
			<g class="st0">
				<path class="st1" d="M100.7,38.1c-0.1,5.1-0.4,9-0.5,14.3c0,0.3,0,0.7,0,0.9c0,4.5,1.5,6.1,5.7,6.1c5.8,0,9.9-5,10.7-9.5
					c0.1-0.9,0.9-1.3,1.6-1.3c0.8,0,1.7,0.5,1.7,1.6c0,0.1,0,0.3,0,0.4c-1.2,6.1-6.7,11.9-13.9,11.9c-5.5,0-8.8-2.5-8.8-9
					c0-0.3,0-0.7,0-1.1c0.3-5.4,0.4-9.1,0.4-14.5c0-0.9,0.8-1.5,1.6-1.5C99.9,36.3,100.7,37,100.7,38.1L100.7,38.1z"/>
				<path class="st1" d="M127.2,61.4c-0.7,0-1.3-0.4-1.6-1.3c-0.7-2.5-0.9-5.9-0.9-9.6c0-4.4,0.4-9,1.2-12.7
					c0.1-0.8,0.8-1.2,1.5-1.2c0.8,0,1.7,0.5,1.7,1.5c0,0.1,0,0.3,0,0.4c-0.8,3.3-1.2,7.1-1.2,11c0,3.7,0.4,7.4,0.9,10
					c0,0.1,0,0.3,0,0.4C128.8,60.9,128,61.4,127.2,61.4z M141.5,45.6c-2.1,0.1-4.5,0.1-6.9,0.1c-0.8,0-1.7,0-2.5,0
					c-0.9,0-1.5-0.8-1.5-1.6c0-0.7,0.5-1.5,1.5-1.5h0.1c1.3,0,2.6,0.1,4.1,0.1c1.7,0,3.6,0,5.1-0.1c0-1.7-0.1-3.4-0.3-5v-0.1
					c0-0.8,0.8-1.3,1.6-1.3s1.5,0.4,1.6,1.2c0.1,1.7,0.1,3.3,0.3,4.9c1.6-0.1,3-0.3,4.1-0.4c0.1,0,0.1,0,0.3,0
					c0.8,0,1.3,0.7,1.3,1.5c0,1.3-0.9,1.5-5.5,1.8c0,1.3,0,2.6,0,3.8c-0.1,7-2.6,11.6-10.2,13.1c-0.1,0-0.3,0-0.5,0
					c-1.1,0-1.6-0.8-1.6-1.6c0-0.7,0.4-1.3,1.2-1.5c7.1-1.3,8.1-5.9,8.1-12.8v-0.7L141.5,45.6L141.5,45.6z M146.4,41.8
					c-0.5,0-0.9-0.3-1.1-0.8c-0.3-1.5-0.9-3.3-1.5-4.4c0-0.1-0.1-0.3-0.1-0.4c0-0.5,0.5-0.9,1.1-0.9c0.4,0,0.8,0.3,0.9,0.7
					c0.3,0.7,1.6,3.7,1.6,4.8C147.5,41.2,146.9,41.8,146.4,41.8z M149.9,41.2c-0.4,0-0.9-0.3-0.9-0.8c-0.4-1.5-1.1-3.2-1.5-4.2
					c0-0.1-0.1-0.3-0.1-0.5c0-0.5,0.5-0.9,1.1-0.9c0.4,0,0.8,0.3,1.1,0.8c1.1,2.6,1.6,4,1.6,4.6S150.6,41.2,149.9,41.2z"/>
				<path class="st1" d="M160.2,55.9c0.1-2.2,0.5-4.8,0.7-5.8v-0.3c0-0.9-0.4-1.2-0.9-1.2c-0.4,0-0.8,0.1-1.2,0.5
					c-2.5,1.7-3,3.4-5.3,11.4c-0.3,0.9-1.1,1.5-1.7,1.5c-0.8,0-1.5-0.5-1.5-1.5c0-0.7,2.5-9.8,9.5-23.8c0.3-0.7,0.9-0.9,1.5-0.9
					c0.8,0,1.7,0.5,1.7,1.5c0,0.3-0.1,0.5-0.3,0.9c-2.6,4.9-4.6,9.1-4.5,9.1c0,0,0,0,0.5-0.4c0.7-0.5,1.5-0.7,2.1-0.7
					c1.6,0,3.2,1.1,3.2,3.3c0,0.1,0,0.4,0,0.5c-0.1,1.3-0.7,4.1-0.7,5.8c0,2.4,1.1,3.2,2.6,3.2c4.6,0,8.2-5.1,8.8-10.2
					c0.1-1.1,0.9-1.5,1.6-1.5c0.9,0,1.7,0.7,1.7,1.6c0,0.1,0,0.1,0,0.3c-0.9,7.3-6.5,12.9-12.5,12.9c-2.8,0-5.3-1.5-5.3-5.5v-0.8h0
					V55.9z"/>
			</g>
		</g>
	</g>
</g>
</svg>
